999
dxfrw 0.6.3
  0
SECTION
  2
HEADER
  9
$ACADVER
  1
AC1021
  9
$DWGCODEPAGE
  3
ANSI_1252
  9
$INSBASE
 10
0
 20
0
 30
0
  9
$EXTMIN
 10
-18.125
 20
-14.25
 30
0
  9
$EXTMAX
 10
314.25
 20
90.49496618051919
 30
0
  9
$LIMMIN
 10
0
 20
0
  9
$LIMMAX
 10
420
 20
297
  9
$ORTHOMODE
 70
    0
  9
$REGENMODE
 70
    1
  9
$FILLMODE
 70
    1
  9
$QTEXTMODE
 70
    0
  9
$MIRRTEXT
 70
    0
  9
$LTSCALE
 40
1
  9
$ATTMODE
 70
    0
  9
$TEXTSIZE
 40
2.5
  9
$TRACEWID
 40
15.68
  9
$TEXTSTYLE
  7
STANDARD
  9
$CLAYER
  8
0
  9
$CELTYPE
  6
BYLAYER
  9
$CECOLOR
 62
  256
  9
$CELTSCALE
 40
1
  9
$DISPSILH
 70
    0
  9
$DIMSCALE
 40
1
  9
$DIMASZ
 40
2.5
  9
$DIMEXO
 40
0.625
  9
$DIMDLI
 40
3.75
  9
$DIMRND
 40
0
  9
$DIMDLE
 40
0
  9
$DIMEXE
 40
1.25
  9
$DIMTP
 40
0
  9
$DIMTM
 40
0
  9
$DIMTXT
 40
2.5
  9
$DIMCEN
 40
2.5
  9
$DIMTSZ
 40
0
  9
$DIMTOL
 70
    0
  9
$DIMLIM
 70
    0
  9
$DIMTIH
 70
    0
  9
$DIMTOH
 70
    0
  9
$DIMSE1
 70
    0
  9
$DIMSE2
 70
    0
  9
$DIMTAD
 70
    1
  9
$DIMZIN
 70
    8
  9
$DIMBLK
  1

  9
$DIMASO
 70
    1
  9
$DIMSHO
 70
    1
  9
$DIMPOST
  1

  9
$DIMAPOST
  1

  9
$DIMALT
 70
    0
  9
$DIMALTD
 70
    3
  9
$DIMALTF
 40
0.03937
  9
$DIMLFAC
 40
1
  9
$DIMTOFL
 70
    1
  9
$DIMTVP
 40
0
  9
$DIMTIX
 70
    0
  9
$DIMSOXD
 70
    0
  9
$DIMSAH
 70
    0
  9
$DIMBLK1
  1

  9
$DIMBLK2
  1

  9
$DIMSTYLE
  2
STANDARD
  9
$DIMCLRD
 70
    0
  9
$DIMCLRE
 70
    2
  9
$DIMCLRT
 70
    2
  9
$DIMTFAC
 40
1
  9
$DIMGAP
 40
0.625
  9
$DIMJUST
 70
    0
  9
$DIMSD1
 70
    0
  9
$DIMSD2
 70
    0
  9
$DIMTOLJ
 70
    0
  9
$DIMTZIN
 70
    8
  9
$DIMALTZ
 70
    0
  9
$DIMALTTZ
 70
    0
  9
$DIMUPT
 70
    0
  9
$DIMDEC
 70
    4
  9
$DIMTDEC
 70
    2
  9
$DIMALTU
 70
    2
  9
$DIMALTTD
 70
    3
  9
$DIMTXSTY
  7
STANDARD
  9
$DIMAUNIT
 70
    0
  9
$DIMADEC
 70
    2
  9
$DIMALTRND
 40
0
  9
$DIMAZIN
 70
    0
  9
$DIMDSEP
 70
    0
  9
$DIMATFIT
 70
    3
  9
$DIMFRAC
 70
    0
  9
$DIMLDRBLK
  1
STANDARD
  9
$DIMLUNIT
 70
    2
  9
$DIMLWD
 70
   -2
  9
$DIMLWE
 70
   -2
  9
$DIMTMOVE
 70
    0
  9
$DIMFXL
 40
1
  9
$DIMFXLON
 70
    0
  9
$DIMJOGANG
 40
0.7854
  9
$DIMTFILL
 70
    0
  9
$DIMTFILLCLR
 70
    0
  9
$DIMARCSYM
 70
    0
  9
$DIMLTYPE
  6

  9
$DIMLTEX1
  6

  9
$DIMLTEX2
  6

  9
$LUNITS
 70
    2
  9
$LUPREC
 70
    4
  9
$SKETCHINC
 40
1
  9
$FILLETRAD
 40
0
  9
$AUNITS
 70
    0
  9
$AUPREC
 70
    2
  9
$MENU
  1
.
  9
$ELEVATION
 40
0
  9
$PELEVATION
 40
0
  9
$THICKNESS
 40
0
  9
$LIMCHECK
 70
    0
  9
$CHAMFERA
 40
0
  9
$CHAMFERB
 40
0
  9
$CHAMFERC
 40
0
  9
$CHAMFERD
 40
0
  9
$SKPOLY
 70
    0
  9
$USRTIMER
 70
    1
  9
$ANGBASE
 50
0
  9
$ANGDIR
 70
    0
  9
$PDMODE
 70
   34
  9
$PDSIZE
 40
0
  9
$PLINEWID
 40
0
  9
$SPLFRAME
 70
    0
  9
$SPLINETYPE
 70
    2
  9
$SPLINESEGS
 70
    8
  9
$HANDSEED
  5
20000
  9
$SURFTAB1
 70
    6
  9
$SURFTAB2
 70
    6
  9
$SURFTYPE
 70
    6
  9
$SURFU
 70
    6
  9
$SURFV
 70
    6
  9
$UCSBASE
  2

  9
$UCSNAME
  2

  9
$UCSORG
 10
0
 20
0
 30
0
  9
$UCSXDIR
 10
1
 20
0
 30
0
  9
$UCSYDIR
 10
0
 20
1
 30
0
  9
$UCSORTHOREF
  2

  9
$UCSORTHOVIEW
 70
    0
  9
$UCSORGTOP
 10
0
 20
0
 30
0
  9
$UCSORGBOTTOM
 10
0
 20
0
 30
0
  9
$UCSORGLEFT
 10
0
 20
0
 30
0
  9
$UCSORGRIGHT
 10
0
 20
0
 30
0
  9
$UCSORGFRONT
 10
0
 20
0
 30
0
  9
$UCSORGBACK
 10
0
 20
0
 30
0
  9
$PUCSBASE
  2

  9
$PUCSNAME
  2

  9
$PUCSORG
 10
0
 20
0
 30
0
  9
$PUCSXDIR
 10
1
 20
0
 30
0
  9
$PUCSYDIR
 10
0
 20
1
 30
0
  9
$PUCSORTHOREF
  2

  9
$PUCSORTHOVIEW
 70
    0
  9
$PUCSORGTOP
 10
0
 20
0
 30
0
  9
$PUCSORGBOTTOM
 10
0
 20
0
 30
0
  9
$PUCSORGLEFT
 10
0
 20
0
 30
0
  9
$PUCSORGRIGHT
 10
0
 20
0
 30
0
  9
$PUCSORGFRONT
 10
0
 20
0
 30
0
  9
$PUCSORGBACK
 10
0
 20
0
 30
0
  9
$USERI1
 70
    0
  9
$USERI2
 70
    0
  9
$USERI3
 70
    0
  9
$USERI4
 70
    0
  9
$USERI5
 70
    0
  9
$USERR1
 40
0
  9
$USERR2
 40
0
  9
$USERR3
 40
0
  9
$USERR4
 40
0
  9
$USERR5
 40
0
  9
$WORLDVIEW
 70
    1
  9
$SHADEDGE
 70
    3
  9
$SHADEDIF
 70
   70
  9
$TILEMODE
 70
    1
  9
$MAXACTVP
 70
   64
  9
$PINSBASE
 10
0
 20
0
 30
0
  9
$PLIMCHECK
 70
    0
  9
$PEXTMIN
 10
0
 20
0
 30
0
  9
$PEXTMAX
 10
0
 20
0
 30
0
  9
$SNAPSTYLE
 70
    0
  9
$GRIDUNIT
 10
0
 20
0
  9
$PLIMMIN
 10
0
 20
0
  9
$PLIMMAX
 10
297
 20
210
  9
$UNITMODE
 70
    0
  9
$VISRETAIN
 70
    1
  9
$PLINEGEN
 70
    0
  9
$PSLTSCALE
 70
    1
  9
$TREEDEPTH
 70
 3020
  9
$CMLSTYLE
  2
Standard
  9
$CMLJUST
 70
    0
  9
$CMLSCALE
 40
20
  9
$PROXYGRAPHICS
 70
    1
  9
$MEASUREMENT
 70
    1
  9
$CELWEIGHT
370
   -1
  9
$ENDCAPS
280
    0
  9
$JOINSTYLE
280
    0
  9
$LWDISPLAY
290
    0
  9
$INSUNITS
 70
    0
  9
$HYPERLINKBASE
  1

  9
$STYLESHEET
  1

  9
$XEDIT
290
    1
  9
$CEPSNTYPE
380
    0
  9
$PSTYLEMODE
290
    1
  9
$EXTNAMES
290
    1
  9
$PSVPSCALE
 40
0
  9
$OLESTARTUP
290
    0
  9
$SORTENTS
280
  127
  9
$INDEXCTL
280
    0
  9
$HIDETEXT
280
    1
  9
$XCLIPFRAME
290
    0
  9
$HALOGAP
280
    0
  9
$OBSCOLOR
 70
  257
  9
$OBSLTYPE
280
    0
  9
$INTERSECTIONDISPLAY
280
    0
  9
$INTERSECTIONCOLOR
 70
  257
  9
$DIMASSOC
280
    1
  9
$PROJECTNAME
  1

  9
$CAMERADISPLAY
290
    0
  9
$LENSLENGTH
 40
50
  9
$CAMERAHEIGHT
 40
0
  9
$STEPSPERSEC
 40
2
  9
$STEPSIZE
 40
50
  9
$3DDWFPREC
 40
2
  9
$PSOLWIDTH
 40
5
  9
$PSOLHEIGHT
 40
80
  9
$LOFTANG1
 40
1.570796326794897
  9
$LOFTANG2
 40
1.570796326794897
  9
$LOFTMAG1
 40
0
  9
$LOFTMAG2
 40
0
  9
$LOFTPARAM
 70
    7
  9
$LOFTNORMALS
280
    1
  9
$LATITUDE
 40
1
  9
$LONGITUDE
 40
1
  9
$NORTHDIRECTION
 40
0
  9
$TIMEZONE
 70
-8000
  9
$LIGHTGLYPHDISPLAY
280
    1
  9
$TILEMODELIGHTSYNCH
280
    1
  9
$SOLIDHIST
280
    1
  9
$SHOWHIST
280
    1
  9
$DWFFRAME
280
    2
  9
$DGNFRAME
280
    0
  9
$REALWORLDSCALE
290
    1
  9
$INTERFERECOLOR
 62
    1
  9
$CSHADOW
280
    0
  9
$SHADOWPLANELOCATION
 40
0
  0
ENDSEC
  0
SECTION
  2
CLASSES
  0
ENDSEC
  0
SECTION
  2
TABLES
  0
TABLE
  2
VPORT
  5
8
330
0
100
AcDbSymbolTable
 70
    1
  0
VPORT
  5
31
330
2
100
AcDbSymbolTableRecord
100
AcDbViewportTableRecord
  2
*ACTIVE
 70
    0
 10
0
 20
0
 11
1
 21
1
 12
166.7154902400146
 22
72.56053843200635
 13
0
 23
0
 14
10
 24
10
 15
10
 25
10
 16
0
 26
0
 36
1
 17
0
 27
0
 37
0
 40
206.181142272018
 41
1.752808988764045
 42
50
 43
0
 44
0
 50
0
 51
0
 71
    0
 72
  100
 73
    1
 74
    3
 75
    0
 76
    1
 77
    0
 78
    0
281
    0
 65
    1
110
0
120
0
130
0
111
1
121
0
131
0
112
0
122
1
132
0
 79
    0
146
0
348
10020
 60
    7
 61
    5
292
1
282
    1
141
0
142
0
 63
  250
421
3358443
  0
ENDTAB
  0
TABLE
  2
LTYPE
  5
5
330
0
100
AcDbSymbolTable
 70
    4
  0
LTYPE
  5
14
330
5
100
AcDbSymbolTableRecord
100
AcDbLinetypeTableRecord
  2
ByBlock
 70
    0
  3

 72
   65
 73
    0
 40
0
  0
LTYPE
  5
15
330
5
100
AcDbSymbolTableRecord
100
AcDbLinetypeTableRecord
  2
ByLayer
 70
    0
  3

 72
   65
 73
    0
 40
0
  0
LTYPE
  5
16
330
5
100
AcDbSymbolTableRecord
100
AcDbLinetypeTableRecord
  2
Continuous
 70
    0
  3
Solid line
 72
   65
 73
    0
 40
0
  0
LTYPE
  5
32
330
5
100
AcDbSymbolTableRecord
100
AcDbLinetypeTableRecord
  2
DOT
 70
    0
  3
Dot . . . . . . . . . . . . . . . . . . . . . .
 72
   65
 73
    2
 40
6.35
 49
0
 74
    0
 49
-6.35
 74
    0
  0
LTYPE
  5
33
330
5
100
AcDbSymbolTableRecord
100
AcDbLinetypeTableRecord
  2
DOTTINY
 70
    0
  3
Dot (.15x) .....................................
 72
   65
 73
    2
 40
0.9525
 49
0
 74
    0
 49
-0.9525
 74
    0
  0
LTYPE
  5
34
330
5
100
AcDbSymbolTableRecord
100
AcDbLinetypeTableRecord
  2
DOT2
 70
    0
  3
Dot (.5x) .....................................
 72
   65
 73
    2
 40
3.175
 49
0
 74
    0
 49
-3.175
 74
    0
  0
LTYPE
  5
35
330
5
100
AcDbSymbolTableRecord
100
AcDbLinetypeTableRecord
  2
DOTX2
 70
    0
  3
Dot (2x) .  .  .  .  .  .  .  .  .  .  .  .  .
 72
   65
 73
    2
 40
12.7
 49
0
 74
    0
 49
-12.7
 74
    0
  0
LTYPE
  5
36
330
5
100
AcDbSymbolTableRecord
100
AcDbLinetypeTableRecord
  2
DASHED
 70
    0
  3
Dashed _ _ _ _ _ _ _ _ _ _ _ _ _ _ _ _ _
 72
   65
 73
    2
 40
19.05
 49
12.7
 74
    0
 49
-6.35
 74
    0
  0
LTYPE
  5
37
330
5
100
AcDbSymbolTableRecord
100
AcDbLinetypeTableRecord
  2
DASHEDTINY
 70
    0
  3
Dashed (.15x) _ _ _ _ _ _ _ _ _ _ _ _ _ _ _ _ _
 72
   65
 73
    2
 40
2.8575
 49
1.905
 74
    0
 49
-0.9525
 74
    0
  0
LTYPE
  5
38
330
5
100
AcDbSymbolTableRecord
100
AcDbLinetypeTableRecord
  2
DASHED2
 70
    0
  3
Dashed (.5x) _ _ _ _ _ _ _ _ _ _ _ _ _ _ _ _ _
 72
   65
 73
    2
 40
9.524999999999999
 49
6.35
 74
    0
 49
-3.175
 74
    0
  0
LTYPE
  5
39
330
5
100
AcDbSymbolTableRecord
100
AcDbLinetypeTableRecord
  2
DASHEDX2
 70
    0
  3
Dashed (2x) ____  ____  ____  ____  ____  ___
 72
   65
 73
    2
 40
38.09999999999999
 49
25.4
 74
    0
 49
-12.7
 74
    0
  0
LTYPE
  5
3A
330
5
100
AcDbSymbolTableRecord
100
AcDbLinetypeTableRecord
  2
DASHDOT
 70
    0
  3
Dash dot __ . __ . __ . __ . __ . __ . __ . __
 72
   65
 73
    4
 40
25.4
 49
12.7
 74
    0
 49
-6.35
 74
    0
 49
0
 74
    0
 49
-6.35
 74
    0
  0
LTYPE
  5
3B
330
5
100
AcDbSymbolTableRecord
100
AcDbLinetypeTableRecord
  2
DASHDOTTINY
 70
    0
  3
Dash dot (.15x) _._._._._._._._._._._._._._._.
 72
   65
 73
    4
 40
3.81
 49
1.905
 74
    0
 49
-0.9525
 74
    0
 49
0
 74
    0
 49
-0.9525
 74
    0
  0
LTYPE
  5
3C
330
5
100
AcDbSymbolTableRecord
100
AcDbLinetypeTableRecord
  2
DASHDOT2
 70
    0
  3
Dash dot (.5x) _._._._._._._._._._._._._._._.
 72
   65
 73
    4
 40
12.7
 49
6.35
 74
    0
 49
-3.175
 74
    0
 49
0
 74
    0
 49
-3.175
 74
    0
  0
LTYPE
  5
3D
330
5
100
AcDbSymbolTableRecord
100
AcDbLinetypeTableRecord
  2
DASHDOTX2
 70
    0
  3
Dash dot (2x) ____  .  ____  .  ____  .  ___
 72
   65
 73
    4
 40
50.8
 49
25.4
 74
    0
 49
-12.7
 74
    0
 49
0
 74
    0
 49
-12.7
 74
    0
  0
LTYPE
  5
3E
330
5
100
AcDbSymbolTableRecord
100
AcDbLinetypeTableRecord
  2
DIVIDE
 70
    0
  3
Divide ____ . . ____ . . ____ . . ____ . . ____
 72
   65
 73
    6
 40
31.75
 49
12.7
 74
    0
 49
-6.35
 74
    0
 49
0
 74
    0
 49
-6.35
 74
    0
 49
0
 74
    0
 49
-6.35
 74
    0
  0
LTYPE
  5
3F
330
5
100
AcDbSymbolTableRecord
100
AcDbLinetypeTableRecord
  2
DIVIDETINY
 70
    0
  3
Divide (.15x) __..__..__..__..__..__..__..__.._
 72
   65
 73
    6
 40
4.7625
 49
1.905
 74
    0
 49
-0.9525
 74
    0
 49
0
 74
    0
 49
-0.9525
 74
    0
 49
0
 74
    0
 49
-0.9525
 74
    0
  0
LTYPE
  5
40
330
5
100
AcDbSymbolTableRecord
100
AcDbLinetypeTableRecord
  2
DIVIDE2
 70
    0
  3
Divide (.5x) __..__..__..__..__..__..__..__.._
 72
   65
 73
    6
 40
15.875
 49
6.35
 74
    0
 49
-3.175
 74
    0
 49
0
 74
    0
 49
-3.175
 74
    0
 49
0
 74
    0
 49
-3.175
 74
    0
  0
LTYPE
  5
41
330
5
100
AcDbSymbolTableRecord
100
AcDbLinetypeTableRecord
  2
DIVIDEX2
 70
    0
  3
Divide (2x) ________  .  .  ________  .  .  _
 72
   65
 73
    6
 40
63.5
 49
25.4
 74
    0
 49
-12.7
 74
    0
 49
0
 74
    0
 49
-12.7
 74
    0
 49
0
 74
    0
 49
-12.7
 74
    0
  0
LTYPE
  5
42
330
5
100
AcDbSymbolTableRecord
100
AcDbLinetypeTableRecord
  2
BORDER
 70
    0
  3
Border __ __ . __ __ . __ __ . __ __ . __ __ .
 72
   65
 73
    6
 40
44.45
 49
12.7
 74
    0
 49
-6.35
 74
    0
 49
12.7
 74
    0
 49
-6.35
 74
    0
 49
0
 74
    0
 49
-6.35
 74
    0
  0
LTYPE
  5
43
330
5
100
AcDbSymbolTableRecord
100
AcDbLinetypeTableRecord
  2
BORDERTINY
 70
    0
  3
Border (.15x) __.__.__.__.__.__.__.__.__.__.__.
 72
   65
 73
    6
 40
6.6675
 49
1.905
 74
    0
 49
-0.9525
 74
    0
 49
1.905
 74
    0
 49
-0.9525
 74
    0
 49
0
 74
    0
 49
-0.9525
 74
    0
  0
LTYPE
  5
44
330
5
100
AcDbSymbolTableRecord
100
AcDbLinetypeTableRecord
  2
BORDER2
 70
    0
  3
Border (.5x) __.__.__.__.__.__.__.__.__.__.__.
 72
   65
 73
    6
 40
22.225
 49
6.35
 74
    0
 49
-3.175
 74
    0
 49
6.35
 74
    0
 49
-3.175
 74
    0
 49
0
 74
    0
 49
-3.175
 74
    0
  0
LTYPE
  5
45
330
5
100
AcDbSymbolTableRecord
100
AcDbLinetypeTableRecord
  2
BORDERX2
 70
    0
  3
Border (2x) ____  ____  .  ____  ____  .  ___
 72
   65
 73
    6
 40
88.89999999999999
 49
25.4
 74
    0
 49
-12.7
 74
    0
 49
25.4
 74
    0
 49
-12.7
 74
    0
 49
0
 74
    0
 49
-12.7
 74
    0
  0
LTYPE
  5
46
330
5
100
AcDbSymbolTableRecord
100
AcDbLinetypeTableRecord
  2
CENTER
 70
    0
  3
Center ____ _ ____ _ ____ _ ____ _ ____ _ ____
 72
   65
 73
    4
 40
50.8
 49
31.75
 74
    0
 49
-6.35
 74
    0
 49
6.35
 74
    0
 49
-6.35
 74
    0
  0
LTYPE
  5
47
330
5
100
AcDbSymbolTableRecord
100
AcDbLinetypeTableRecord
  2
CENTERTINY
 70
    0
  3
Center (.15x) ___ _ ___ _ ___ _ ___ _ ___ _ ___
 72
   65
 73
    4
 40
7.62
 49
4.7625
 74
    0
 49
-0.9525
 74
    0
 49
0.9525
 74
    0
 49
-0.9525
 74
    0
  0
LTYPE
  5
48
330
5
100
AcDbSymbolTableRecord
100
AcDbLinetypeTableRecord
  2
CENTER2
 70
    0
  3
Center (.5x) ___ _ ___ _ ___ _ ___ _ ___ _ ___
 72
   65
 73
    4
 40
28.575
 49
19.05
 74
    0
 49
-3.175
 74
    0
 49
3.175
 74
    0
 49
-3.175
 74
    0
  0
LTYPE
  5
49
330
5
100
AcDbSymbolTableRecord
100
AcDbLinetypeTableRecord
  2
CENTERX2
 70
    0
  3
Center (2x) ________  __  ________  __  _____
 72
   65
 73
    4
 40
101.6
 49
63.5
 74
    0
 49
-12.7
 74
    0
 49
12.7
 74
    0
 49
-12.7
 74
    0
  0
ENDTAB
  0
TABLE
  2
LAYER
  5
2
330
0
100
AcDbSymbolTable
 70
    1
  0
LAYER
  5
10
330
2
100
AcDbSymbolTableRecord
100
AcDbLayerTableRecord
  2
0
 70
    0
 62
    7
  6
CONTINUOUS
370
    0
390
F
  0
LAYER
  5
4A
330
2
100
AcDbSymbolTableRecord
100
AcDbLayerTableRecord
  2
comment
 70
    0
 62
    2
  6
CONTINUOUS
370
    0
390
F
  0
LAYER
  5
4B
330
2
100
AcDbSymbolTableRecord
100
AcDbLayerTableRecord
  2
fill
 70
    0
 62
    4
  6
CONTINUOUS
370
    0
390
F
  0
ENDTAB
  0
TABLE
  2
STYLE
  5
3
330
0
100
AcDbSymbolTable
 70
    3
  0
STYLE
  5
4C
330
2
100
AcDbSymbolTableRecord
100
AcDbTextStyleTableRecord
  2
Standard
 70
    0
 40
0
 41
1
 50
0
 71
    0
 42
1
  3
txt
  4

  0
ENDTAB
  0
TABLE
  2
VIEW
  5
6
330
0
100
AcDbSymbolTable
 70
    0
  0
ENDTAB
  0
TABLE
  2
UCS
  5
7
330
0
100
AcDbSymbolTable
 70
    0
  0
ENDTAB
  0
TABLE
  2
APPID
  5
9
330
0
100
AcDbSymbolTable
 70
    1
  0
APPID
  5
12
330
9
100
AcDbSymbolTableRecord
100
AcDbRegAppTableRecord
  2
ACAD
 70
    0
  0
APPID
  5
4D
330
9
100
AcDbSymbolTableRecord
100
AcDbRegAppTableRecord
  2
LibreCad
 70
    0
  0
ENDTAB
  0
TABLE
  2
DIMSTYLE
  5
A
330
0
100
AcDbSymbolTable
 70
    1
100
AcDbDimStyleTable
 71
    1
  0
DIMSTYLE
105
4E
330
A
100
AcDbSymbolTableRecord
100
AcDbDimStyleTableRecord
  2
Standard
 70
    0
 40
1
 41
2.5
 42
0.625
 43
0.38
 44
1.25
 45
0
 46
0
 47
0
 48
0
 49
1
140
2.5
141
0.09
142
0
143
25.4
144
1
145
0
146
1
147
0.625
148
0
 71
    0
 72
    0
 73
    0
 74
    1
 75
    0
 76
    0
 77
    0
 78
    1
 79
    0
170
    0
171
    2
172
    0
173
    0
174
    0
175
    0
176
    2
177
    2
178
    2
179
    2
271
    4
272
    4
273
    2
274
    2
275
    0
276
    0
277
    2
278
    0
279
    0
280
    0
281
    0
282
    0
283
    1
284
    0
285
    0
286
    0
288
    0
289
    3
340
standard
341

371
   -2
372
   -2
  0
ENDTAB
  0
TABLE
  2
BLOCK_RECORD
  5
1
330
0
100
AcDbSymbolTable
 70
    2
  0
BLOCK_RECORD
  5
1F
330
1
100
AcDbSymbolTableRecord
100
AcDbBlockTableRecord
  2
*Model_Space
 70
    0
280
    1
281
    0
  0
BLOCK_RECORD
  5
1E
330
1
100
AcDbSymbolTableRecord
100
AcDbBlockTableRecord
  2
*Paper_Space
 70
    0
280
    1
281
    0
  0
BLOCK_RECORD
  5
4F
330
1
100
AcDbSymbolTableRecord
100
AcDbBlockTableRecord
  2
*D11
 70
    0
280
    1
281
    0
  0
BLOCK_RECORD
  5
52
330
1
100
AcDbSymbolTableRecord
100
AcDbBlockTableRecord
  2
*D23
 70
    0
280
    1
281
    0
  0
BLOCK_RECORD
  5
55
330
1
100
AcDbSymbolTableRecord
100
AcDbBlockTableRecord
  2
*D6
 70
    0
280
    1
281
    0
  0
BLOCK_RECORD
  5
58
330
1
100
AcDbSymbolTableRecord
100
AcDbBlockTableRecord
  2
*D1
 70
    0
280
    1
281
    0
  0
BLOCK_RECORD
  5
5B
330
1
100
AcDbSymbolTableRecord
100
AcDbBlockTableRecord
  2
*D16
 70
    0
280
    1
281
    0
  0
BLOCK_RECORD
  5
5E
330
1
100
AcDbSymbolTableRecord
100
AcDbBlockTableRecord
  2
*D30
 70
    0
280
    1
281
    0
  0
BLOCK_RECORD
  5
61
330
1
100
AcDbSymbolTableRecord
100
AcDbBlockTableRecord
  2
*D19
 70
    0
280
    1
281
    0
  0
BLOCK_RECORD
  5
64
330
1
100
AcDbSymbolTableRecord
100
AcDbBlockTableRecord
  2
*D4
 70
    0
280
    1
281
    0
  0
BLOCK_RECORD
  5
67
330
1
100
AcDbSymbolTableRecord
100
AcDbBlockTableRecord
  2
*D10
 70
    0
280
    1
281
    0
  0
BLOCK_RECORD
  5
6A
330
1
100
AcDbSymbolTableRecord
100
AcDbBlockTableRecord
  2
*D26
 70
    0
280
    1
281
    0
  0
BLOCK_RECORD
  5
6D
330
1
100
AcDbSymbolTableRecord
100
AcDbBlockTableRecord
  2
*D2
 70
    0
280
    1
281
    0
  0
BLOCK_RECORD
  5
70
330
1
100
AcDbSymbolTableRecord
100
AcDbBlockTableRecord
  2
*D35
 70
    0
280
    1
281
    0
  0
BLOCK_RECORD
  5
73
330
1
100
AcDbSymbolTableRecord
100
AcDbBlockTableRecord
  2
*D3
 70
    0
280
    1
281
    0
  0
BLOCK_RECORD
  5
76
330
1
100
AcDbSymbolTableRecord
100
AcDbBlockTableRecord
  2
*D34
 70
    0
280
    1
281
    0
  0
BLOCK_RECORD
  5
79
330
1
100
AcDbSymbolTableRecord
100
AcDbBlockTableRecord
  2
*D14
 70
    0
280
    1
281
    0
  0
BLOCK_RECORD
  5
7C
330
1
100
AcDbSymbolTableRecord
100
AcDbBlockTableRecord
  2
*D9
 70
    0
280
    1
281
    0
  0
BLOCK_RECORD
  5
7F
330
1
100
AcDbSymbolTableRecord
100
AcDbBlockTableRecord
  2
*D32
 70
    0
280
    1
281
    0
  0
BLOCK_RECORD
  5
82
330
1
100
AcDbSymbolTableRecord
100
AcDbBlockTableRecord
  2
*D13
 70
    0
280
    1
281
    0
  0
BLOCK_RECORD
  5
85
330
1
100
AcDbSymbolTableRecord
100
AcDbBlockTableRecord
  2
*D15
 70
    0
280
    1
281
    0
  0
BLOCK_RECORD
  5
88
330
1
100
AcDbSymbolTableRecord
100
AcDbBlockTableRecord
  2
*D21
 70
    0
280
    1
281
    0
  0
BLOCK_RECORD
  5
8B
330
1
100
AcDbSymbolTableRecord
100
AcDbBlockTableRecord
  2
*D33
 70
    0
280
    1
281
    0
  0
BLOCK_RECORD
  5
8E
330
1
100
AcDbSymbolTableRecord
100
AcDbBlockTableRecord
  2
*D20
 70
    0
280
    1
281
    0
  0
BLOCK_RECORD
  5
91
330
1
100
AcDbSymbolTableRecord
100
AcDbBlockTableRecord
  2
*D7
 70
    0
280
    1
281
    0
  0
BLOCK_RECORD
  5
94
330
1
100
AcDbSymbolTableRecord
100
AcDbBlockTableRecord
  2
*D12
 70
    0
280
    1
281
    0
  0
BLOCK_RECORD
  5
97
330
1
100
AcDbSymbolTableRecord
100
AcDbBlockTableRecord
  2
*D5
 70
    0
280
    1
281
    0
  0
BLOCK_RECORD
  5
9A
330
1
100
AcDbSymbolTableRecord
100
AcDbBlockTableRecord
  2
*D8
 70
    0
280
    1
281
    0
  0
BLOCK_RECORD
  5
9D
330
1
100
AcDbSymbolTableRecord
100
AcDbBlockTableRecord
  2
*D31
 70
    0
280
    1
281
    0
  0
BLOCK_RECORD
  5
A0
330
1
100
AcDbSymbolTableRecord
100
AcDbBlockTableRecord
  2
*D27
 70
    0
280
    1
281
    0
  0
BLOCK_RECORD
  5
A3
330
1
100
AcDbSymbolTableRecord
100
AcDbBlockTableRecord
  2
*D28
 70
    0
280
    1
281
    0
  0
BLOCK_RECORD
  5
A6
330
1
100
AcDbSymbolTableRecord
100
AcDbBlockTableRecord
  2
*D18
 70
    0
280
    1
281
    0
  0
BLOCK_RECORD
  5
A9
330
1
100
AcDbSymbolTableRecord
100
AcDbBlockTableRecord
  2
*D22
 70
    0
280
    1
281
    0
  0
BLOCK_RECORD
  5
AC
330
1
100
AcDbSymbolTableRecord
100
AcDbBlockTableRecord
  2
*D17
 70
    0
280
    1
281
    0
  0
BLOCK_RECORD
  5
AF
330
1
100
AcDbSymbolTableRecord
100
AcDbBlockTableRecord
  2
*D24
 70
    0
280
    1
281
    0
  0
BLOCK_RECORD
  5
B2
330
1
100
AcDbSymbolTableRecord
100
AcDbBlockTableRecord
  2
*D25
 70
    0
280
    1
281
    0
  0
BLOCK_RECORD
  5
B5
330
1
100
AcDbSymbolTableRecord
100
AcDbBlockTableRecord
  2
*D29
 70
    0
280
    1
281
    0
  0
ENDTAB
  0
ENDSEC
  0
SECTION
  2
BLOCKS
  0
BLOCK
  5
20
330
1F
100
AcDbEntity
  8
0
100
AcDbBlockBegin
  2
*Model_Space
 70
    0
 10
0
 20
0
 30
0
  3
*Model_Space
  1

  0
ENDBLK
  5
21
330
1F
100
AcDbEntity
  8
0
100
AcDbBlockEnd
  0
BLOCK
  5
1C
330
1B
100
AcDbEntity
  8
0
100
AcDbBlockBegin
  2
*Paper_Space
 70
    0
 10
0
 20
0
 30
0
  3
*Paper_Space
  1

  0
ENDBLK
  5
1D
330
1F
100
AcDbEntity
  8
0
100
AcDbBlockEnd
  0
BLOCK
  5
50
330
4F
100
AcDbEntity
  8
0
100
AcDbBlockBegin
  2
*D11
 70
    1
 10
0
 20
0
  3
*D11
  1

  0
LINE
  5
B8
100
AcDbEntity
  8
comment
  6
ByBlock
 62
    2
370
   -2
100
AcDbLine
 10
37.375
 20
39
 11
33.75
 21
39
  0
LINE
  5
B9
100
AcDbEntity
  8
comment
  6
ByBlock
 62
    2
370
   -2
100
AcDbLine
 10
37.375
 20
14
 11
33.75
 21
14
  0
LINE
  5
BA
100
AcDbEntity
  8
comment
  6
ByBlock
 62
    2
370
   -2
100
AcDbLine
 10
35
 20
39
 11
35
 21
14
  0
MTEXT
  5
BB
100
AcDbEntity
  8
comment
  6
CONTINUOUS
 62
    2
370
   -2
100
AcDbMText
 10
33.125
 20
26.5
 30
0
 40
2.5
 41
11.66666666666682
 71
    5
 72
    1
  1
25.0000
  7
standard
210
0
220
0
230
1
 50
90
 73
    2
 44
1
  0
SOLID
  5
BC
100
AcDbEntity
  8
comment
  6
ByBlock
 62
    2
370
   -2
100
AcDbTrace
 10
35
 20
39
 30
0
 11
35.41628465777284
 21
36.5
 31
0
 12
34.58371534222716
 22
36.5
 32
0
 13
34.58371534222716
 23
36.5
 33
0
  0
SOLID
  5
BD
100
AcDbEntity
  8
comment
  6
ByBlock
 62
    2
370
   -2
100
AcDbTrace
 10
35
 20
14
 30
0
 11
34.58371534222716
 21
16.5
 31
0
 12
35.41628465777284
 22
16.5
 32
0
 13
35.41628465777284
 23
16.5
 33
0
  0
ENDBLK
  5
51
330
4F
100
AcDbEntity
  8
0
100
AcDbBlockEnd
  0
BLOCK
  5
53
330
52
100
AcDbEntity
  8
0
100
AcDbBlockBegin
  2
*D23
 70
    1
 10
0
 20
0
  3
*D23
  1

  0
LINE
  5
BE
100
AcDbEntity
  8
comment
  6
ByBlock
 62
    2
370
   -2
100
AcDbLine
 10
196
 20
61.625
 11
196
 21
72.25
  0
LINE
  5
BF
100
AcDbEntity
  8
comment
  6
ByBlock
 62
    2
370
   -2
100
AcDbLine
 10
304
 20
61.625
 11
304
 21
72.25
  0
LINE
  5
C0
100
AcDbEntity
  8
comment
  6
ByBlock
 62
    2
370
   -2
100
AcDbLine
 10
196
 20
71
 11
304
 21
71
  0
MTEXT
  5
C1
100
AcDbEntity
  8
comment
  6
CONTINUOUS
 62
    2
370
   -2
100
AcDbMText
 10
250
 20
72.875
 30
0
 40
2.5
 41
13.05555555555556
 71
    5
 72
    1
  1
108.0000
  7
standard
210
0
220
0
230
1
 50
0
 73
    2
 44
1
  0
SOLID
  5
C2
100
AcDbEntity
  8
comment
  6
ByBlock
 62
    2
370
   -2
100
AcDbTrace
 10
196
 20
71
 30
0
 11
198.5
 21
71.41628465777283
 31
0
 12
198.5
 22
70.58371534222717
 32
0
 13
198.5
 23
70.58371534222717
 33
0
  0
SOLID
  5
C3
100
AcDbEntity
  8
comment
  6
ByBlock
 62
    2
370
   -2
100
AcDbTrace
 10
304
 20
71
 30
0
 11
301.5
 21
70.58371534222717
 31
0
 12
301.5
 22
71.41628465777283
 32
0
 13
301.5
 23
71.41628465777283
 33
0
  0
ENDBLK
  5
54
330
52
100
AcDbEntity
  8
0
100
AcDbBlockEnd
  0
BLOCK
  5
56
330
55
100
AcDbEntity
  8
0
100
AcDbBlockBegin
  2
*D6
 70
    1
 10
0
 20
0
  3
*D6
  1

  0
LINE
  5
C4
100
AcDbEntity
  8
comment
  6
ByBlock
 62
    2
370
   -2
100
AcDbLine
 10
9.375
 20
3
 11
-8.25
 21
3.000000000000002
  0
LINE
  5
C5
100
AcDbEntity
  8
comment
  6
ByBlock
 62
    2
370
   -2
100
AcDbLine
 10
9.375
 20
-4
 11
-8.25
 21
-3.999999999999998
  0
LINE
  5
C6
100
AcDbEntity
  8
comment
  6
ByBlock
 62
    2
370
   -2
100
AcDbLine
 10
-7
 20
3.000000000000002
 11
-7
 21
-3.999999999999998
  0
MTEXT
  5
C7
100
AcDbEntity
  8
comment
  6
CONTINUOUS
 62
    2
370
   -2
100
AcDbMText
 10
-8.875
 20
8.486111111111111
 30
0
 40
2.5
 41
9.722222222222221
 71
    5
 72
    1
  1
7.0000
  7
standard
210
0
220
0
230
1
 50
90
 73
    2
 44
1
  0
SOLID
  5
C8
100
AcDbEntity
  8
comment
  6
ByBlock
 62
    2
370
   -2
100
AcDbTrace
 10
-7
 20
3.000000000000002
 30
0
 11
-6.583715342227159
 21
0.5000000000000021
 31
0
 12
-7.416284657772841
 22
0.5000000000000022
 32
0
 13
-7.416284657772841
 23
0.5000000000000022
 33
0
  0
SOLID
  5
C9
100
AcDbEntity
  8
comment
  6
ByBlock
 62
    2
370
   -2
100
AcDbTrace
 10
-7
 20
-3.999999999999998
 30
0
 11
-7.41628465777284
 21
-1.499999999999998
 31
0
 12
-6.583715342227159
 22
-1.499999999999998
 32
0
 13
-6.583715342227159
 23
-1.499999999999998
 33
0
  0
ENDBLK
  5
57
330
55
100
AcDbEntity
  8
0
100
AcDbBlockEnd
  0
BLOCK
  5
59
330
58
100
AcDbEntity
  8
0
100
AcDbBlockBegin
  2
*D1
 70
    1
 10
0
 20
0
  3
*D1
  1

  0
LINE
  5
CA
100
AcDbEntity
  8
comment
  6
ByBlock
 62
    2
370
   -2
100
AcDbLine
 10
-4
 20
57.625
 11
-4
 21
68.25
  0
LINE
  5
CB
100
AcDbEntity
  8
comment
  6
ByBlock
 62
    2
370
   -2
100
AcDbLine
 10
21
 20
57.625
 11
21
 21
68.25
  0
LINE
  5
CC
100
AcDbEntity
  8
comment
  6
ByBlock
 62
    2
370
   -2
100
AcDbLine
 10
-4
 20
67
 11
21
 21
67
  0
MTEXT
  5
CD
100
AcDbEntity
  8
comment
  6
CONTINUOUS
 62
    2
370
   -2
100
AcDbMText
 10
8.5
 20
68.875
 30
0
 40
2.5
 41
11.66666666666682
 71
    5
 72
    1
  1
25.0000
  7
standard
210
0
220
0
230
1
 50
0
 73
    2
 44
1
  0
SOLID
  5
CE
100
AcDbEntity
  8
comment
  6
ByBlock
 62
    2
370
   -2
100
AcDbTrace
 10
-4
 20
67
 30
0
 11
-1.5
 21
67.41628465777283
 31
0
 12
-1.5
 22
66.58371534222717
 32
0
 13
-1.5
 23
66.58371534222717
 33
0
  0
SOLID
  5
CF
100
AcDbEntity
  8
comment
  6
ByBlock
 62
    2
370
   -2
100
AcDbTrace
 10
21
 20
67
 30
0
 11
18.5
 21
66.58371534222717
 31
0
 12
18.5
 22
67.41628465777283
 32
0
 13
18.5
 23
67.41628465777283
 33
0
  0
ENDBLK
  5
5A
330
58
100
AcDbEntity
  8
0
100
AcDbBlockEnd
  0
BLOCK
  5
5C
330
5B
100
AcDbEntity
  8
0
100
AcDbBlockBegin
  2
*D16
 70
    1
 10
0
 20
0
  3
*D16
  1

  0
LINE
  5
D0
100
AcDbEntity
  8
comment
  6
ByBlock
 62
    2
370
   -2
100
AcDbLine
 10
84
 20
-3
 11
84
 21
9
  0
MTEXT
  5
D1
100
AcDbEntity
  8
comment
  6
CONTINUOUS
 62
    2
370
   -2
100
AcDbMText
 10
82.125
 20
9.486111111111111
 30
0
 40
2.5
 41
9.722222222222221
 71
    5
 72
    1
  1
2.0000
  7
standard
210
0
220
0
230
1
 50
90
 73
    2
 44
1
  0
SOLID
  5
D2
100
AcDbEntity
  8
comment
  6
ByBlock
 62
    2
370
   -2
100
AcDbTrace
 10
84
 20
2
 30
0
 11
84.41628465777283
 21
-0.5000000000000001
 31
0
 12
83.58371534222717
 22
-0.5
 32
0
 13
83.58371534222717
 23
-0.5
 33
0
  0
SOLID
  5
D3
100
AcDbEntity
  8
comment
  6
ByBlock
 62
    2
370
   -2
100
AcDbTrace
 10
84
 20
4
 30
0
 11
83.58371534222717
 21
6.5
 31
0
 12
84.41628465777283
 22
6.5
 32
0
 13
84.41628465777283
 23
6.5
 33
0
  0
ENDBLK
  5
5D
330
5B
100
AcDbEntity
  8
0
100
AcDbBlockEnd
  0
BLOCK
  5
5F
330
5E
100
AcDbEntity
  8
0
100
AcDbBlockBegin
  2
*D30
 70
    1
 10
0
 20
0
  3
*D30
  1

  0
LINE
  5
D4
100
AcDbEntity
  8
comment
  6
ByBlock
 62
    2
370
   -2
100
AcDbLine
 10
209.375
 20
-4
 11
191.75
 21
-3.999999999999998
  0
LINE
  5
D5
100
AcDbEntity
  8
comment
  6
ByBlock
 62
    2
370
   -2
100
AcDbLine
 10
209.375
 20
3
 11
191.75
 21
3.000000000000002
  0
LINE
  5
D6
100
AcDbEntity
  8
comment
  6
ByBlock
 62
    2
370
   -2
100
AcDbLine
 10
193
 20
-3.999999999999998
 11
193
 21
3.000000000000002
  0
MTEXT
  5
D7
100
AcDbEntity
  8
comment
  6
CONTINUOUS
 62
    2
370
   -2
100
AcDbMText
 10
191.125
 20
8.486111111111112
 30
0
 40
2.5
 41
9.722222222222221
 71
    5
 72
    1
  1
7.0000
  7
standard
210
0
220
0
230
1
 50
90
 73
    2
 44
1
  0
SOLID
  5
D8
100
AcDbEntity
  8
comment
  6
ByBlock
 62
    2
370
   -2
100
AcDbTrace
 10
193
 20
-3.999999999999998
 30
0
 11
192.5837153422272
 21
-1.499999999999998
 31
0
 12
193.4162846577728
 22
-1.499999999999998
 32
0
 13
193.4162846577728
 23
-1.499999999999998
 33
0
  0
SOLID
  5
D9
100
AcDbEntity
  8
comment
  6
ByBlock
 62
    2
370
   -2
100
AcDbTrace
 10
193
 20
3.000000000000002
 30
0
 11
193.4162846577728
 21
0.5000000000000021
 31
0
 12
192.5837153422272
 22
0.5000000000000022
 32
0
 13
192.5837153422272
 23
0.5000000000000022
 33
0
  0
ENDBLK
  5
60
330
5E
100
AcDbEntity
  8
0
100
AcDbBlockEnd
  0
BLOCK
  5
62
330
61
100
AcDbEntity
  8
0
100
AcDbBlockBegin
  2
*D19
 70
    1
 10
0
 20
0
  3
*D19
  1

  0
LINE
  5
DA
100
AcDbEntity
  8
comment
  6
ByBlock
 62
    2
370
   -2
100
AcDbLine
 10
277.9411884050498
 20
56.78464161525503
 11
289.9411884050498
 21
56.78464161525503
  0
MTEXT
  5
DB
100
AcDbEntity
  8
comment
  6
CONTINUOUS
 62
    2
370
   -2
100
AcDbMText
 10
290.4272995161609
 20
58.65964161525503
 30
0
 40
2.5
 41
9.722222222222221
 71
    5
 72
    1
  1
2.0000
  7
standard
210
0
220
0
230
1
 50
0
 73
    2
 44
1
  0
SOLID
  5
DC
100
AcDbEntity
  8
comment
  6
ByBlock
 62
    2
370
   -2
100
AcDbTrace
 10
282.9411884050498
 20
56.78464161525503
 30
0
 11
280.4411884050498
 21
56.36835695748218
 31
0
 12
280.4411884050498
 22
57.20092627302787
 32
0
 13
280.4411884050498
 23
57.20092627302787
 33
0
  0
SOLID
  5
DD
100
AcDbEntity
  8
comment
  6
ByBlock
 62
    2
370
   -2
100
AcDbTrace
 10
284.9411884050498
 20
56.78464161525503
 30
0
 11
287.4411884050498
 21
57.20092627302787
 31
0
 12
287.4411884050498
 22
56.36835695748218
 32
0
 13
287.4411884050498
 23
56.36835695748218
 33
0
  0
ENDBLK
  5
63
330
61
100
AcDbEntity
  8
0
100
AcDbBlockEnd
  0
BLOCK
  5
65
330
64
100
AcDbEntity
  8
0
100
AcDbBlockBegin
  2
*D4
 70
    1
 10
0
 20
0
  3
*D4
  1

  0
LINE
  5
DE
100
AcDbEntity
  8
comment
  6
ByBlock
 62
    2
370
   -2
100
AcDbLine
 10
84
 20
2.375
 11
84
 21
-9.25
  0
LINE
  5
DF
100
AcDbEntity
  8
comment
  6
ByBlock
 62
    2
370
   -2
100
AcDbLine
 10
104
 20
2.375
 11
104
 21
-9.25
  0
LINE
  5
E0
100
AcDbEntity
  8
comment
  6
ByBlock
 62
    2
370
   -2
100
AcDbLine
 10
84
 20
-8
 11
104
 21
-8
  0
MTEXT
  5
E1
100
AcDbEntity
  8
comment
  6
CONTINUOUS
 62
    2
370
   -2
100
AcDbMText
 10
94
 20
-6.125
 30
0
 40
2.5
 41
11.66666666666667
 71
    5
 72
    1
  1
20.0000
  7
standard
210
0
220
0
230
1
 50
0
 73
    2
 44
1
  0
SOLID
  5
E2
100
AcDbEntity
  8
comment
  6
ByBlock
 62
    2
370
   -2
100
AcDbTrace
 10
84
 20
-8
 30
0
 11
86.5
 21
-7.58371534222716
 31
0
 12
86.5
 22
-8.416284657772842
 32
0
 13
86.5
 23
-8.416284657772842
 33
0
  0
SOLID
  5
E3
100
AcDbEntity
  8
comment
  6
ByBlock
 62
    2
370
   -2
100
AcDbTrace
 10
104
 20
-8
 30
0
 11
101.5
 21
-8.41628465777284
 31
0
 12
101.5
 22
-7.583715342227159
 32
0
 13
101.5
 23
-7.583715342227159
 33
0
  0
ENDBLK
  5
66
330
64
100
AcDbEntity
  8
0
100
AcDbBlockEnd
  0
BLOCK
  5
68
330
67
100
AcDbEntity
  8
0
100
AcDbBlockBegin
  2
*D10
 70
    1
 10
0
 20
0
  3
*D10
  1

  0
LINE
  5
E4
100
AcDbEntity
  8
comment
  6
ByBlock
 62
    2
370
   -2
100
AcDbLine
 10
38
 20
39.625
 11
38
 21
43.25
  0
LINE
  5
E5
100
AcDbEntity
  8
comment
  6
ByBlock
 62
    2
370
   -2
100
AcDbLine
 10
63
 20
39.625
 11
63
 21
43.25
  0
LINE
  5
E6
100
AcDbEntity
  8
comment
  6
ByBlock
 62
    2
370
   -2
100
AcDbLine
 10
38
 20
42
 11
63
 21
42
  0
MTEXT
  5
E7
100
AcDbEntity
  8
comment
  6
CONTINUOUS
 62
    2
370
   -2
100
AcDbMText
 10
50.5
 20
43.875
 30
0
 40
2.5
 41
11.66666666666682
 71
    5
 72
    1
  1
25.0000
  7
standard
210
0
220
0
230
1
 50
0
 73
    2
 44
1
  0
SOLID
  5
E8
100
AcDbEntity
  8
comment
  6
ByBlock
 62
    2
370
   -2
100
AcDbTrace
 10
38
 20
42
 30
0
 11
40.5
 21
42.41628465777284
 31
0
 12
40.5
 22
41.58371534222716
 32
0
 13
40.5
 23
41.58371534222716
 33
0
  0
SOLID
  5
E9
100
AcDbEntity
  8
comment
  6
ByBlock
 62
    2
370
   -2
100
AcDbTrace
 10
63
 20
42
 30
0
 11
60.5
 21
41.58371534222716
 31
0
 12
60.5
 22
42.41628465777284
 32
0
 13
60.5
 23
42.41628465777284
 33
0
  0
ENDBLK
  5
69
330
67
100
AcDbEntity
  8
0
100
AcDbBlockEnd
  0
BLOCK
  5
6B
330
6A
100
AcDbEntity
  8
0
100
AcDbBlockBegin
  2
*D26
 70
    1
 10
0
 20
0
  3
*D26
  1

  0
LINE
  5
EA
100
AcDbEntity
  8
comment
  6
ByBlock
 62
    2
370
   -2
100
AcDbLine
 10
284
 20
57.625
 11
284
 21
68.25
  0
LINE
  5
EB
100
AcDbEntity
  8
comment
  6
ByBlock
 62
    2
370
   -2
100
AcDbLine
 10
304
 20
57.625
 11
304
 21
68.25
  0
LINE
  5
EC
100
AcDbEntity
  8
comment
  6
ByBlock
 62
    2
370
   -2
100
AcDbLine
 10
284
 20
67
 11
304
 21
67
  0
MTEXT
  5
ED
100
AcDbEntity
  8
comment
  6
CONTINUOUS
 62
    2
370
   -2
100
AcDbMText
 10
294
 20
68.875
 30
0
 40
2.5
 41
11.66666666666667
 71
    5
 72
    1
  1
20.0000
  7
standard
210
0
220
0
230
1
 50
0
 73
    2
 44
1
  0
SOLID
  5
EE
100
AcDbEntity
  8
comment
  6
ByBlock
 62
    2
370
   -2
100
AcDbTrace
 10
284
 20
67
 30
0
 11
286.5
 21
67.41628465777283
 31
0
 12
286.5
 22
66.58371534222717
 32
0
 13
286.5
 23
66.58371534222717
 33
0
  0
SOLID
  5
EF
100
AcDbEntity
  8
comment
  6
ByBlock
 62
    2
370
   -2
100
AcDbTrace
 10
304
 20
67
 30
0
 11
301.5
 21
66.58371534222717
 31
0
 12
301.5
 22
67.41628465777283
 32
0
 13
301.5
 23
67.41628465777283
 33
0
  0
ENDBLK
  5
6C
330
6A
100
AcDbEntity
  8
0
100
AcDbBlockEnd
  0
BLOCK
  5
6E
330
6D
100
AcDbEntity
  8
0
100
AcDbBlockBegin
  2
*D2
 70
    1
 10
0
 20
0
  3
*D2
  1

  0
LINE
  5
F0
100
AcDbEntity
  8
comment
  6
ByBlock
 62
    2
370
   -2
100
AcDbLine
 10
84
 20
57.625
 11
84
 21
68.25
  0
LINE
  5
F1
100
AcDbEntity
  8
comment
  6
ByBlock
 62
    2
370
   -2
100
AcDbLine
 10
104
 20
57.625
 11
104
 21
68.25
  0
LINE
  5
F2
100
AcDbEntity
  8
comment
  6
ByBlock
 62
    2
370
   -2
100
AcDbLine
 10
84
 20
67
 11
104
 21
67
  0
MTEXT
  5
F3
100
AcDbEntity
  8
comment
  6
CONTINUOUS
 62
    2
370
   -2
100
AcDbMText
 10
94
 20
68.875
 30
0
 40
2.5
 41
11.66666666666667
 71
    5
 72
    1
  1
20.0000
  7
standard
210
0
220
0
230
1
 50
0
 73
    2
 44
1
  0
SOLID
  5
F4
100
AcDbEntity
  8
comment
  6
ByBlock
 62
    2
370
   -2
100
AcDbTrace
 10
84
 20
67
 30
0
 11
86.5
 21
67.41628465777283
 31
0
 12
86.5
 22
66.58371534222717
 32
0
 13
86.5
 23
66.58371534222717
 33
0
  0
SOLID
  5
F5
100
AcDbEntity
  8
comment
  6
ByBlock
 62
    2
370
   -2
100
AcDbTrace
 10
104
 20
67
 30
0
 11
101.5
 21
66.58371534222717
 31
0
 12
101.5
 22
67.41628465777283
 32
0
 13
101.5
 23
67.41628465777283
 33
0
  0
ENDBLK
  5
6F
330
6D
100
AcDbEntity
  8
0
100
AcDbBlockEnd
  0
BLOCK
  5
71
330
70
100
AcDbEntity
  8
0
100
AcDbBlockBegin
  2
*D35
 70
    1
 10
0
 20
0
  3
*D35
  1

  0
LINE
  5
F6
100
AcDbEntity
  8
comment
  6
ByBlock
 62
    2
370
   -2
100
AcDbLine
 10
251.625
 20
27
 11
314.25
 21
26.99999999999999
  0
LINE
  5
F7
100
AcDbEntity
  8
comment
  6
ByBlock
 62
    2
370
   -2
100
AcDbLine
 10
251.625
 20
-4
 11
314.25
 21
-4.000000000000015
  0
LINE
  5
F8
100
AcDbEntity
  8
comment
  6
ByBlock
 62
    2
370
   -2
100
AcDbLine
 10
313
 20
26.99999999999999
 11
313
 21
-4.000000000000015
  0
MTEXT
  5
F9
100
AcDbEntity
  8
comment
  6
CONTINUOUS
 62
    2
370
   -2
100
AcDbMText
 10
311.125
 20
11.49999999999999
 30
0
 40
2.5
 41
11.11111111111127
 71
    5
 72
    1
  1
31.0000
  7
standard
210
0
220
0
230
1
 50
90
 73
    2
 44
1
  0
SOLID
  5
FA
100
AcDbEntity
  8
comment
  6
ByBlock
 62
    2
370
   -2
100
AcDbTrace
 10
313
 20
26.99999999999999
 30
0
 11
313.4162846577728
 21
24.49999999999999
 31
0
 12
312.5837153422272
 22
24.49999999999999
 32
0
 13
312.5837153422272
 23
24.49999999999999
 33
0
  0
SOLID
  5
FB
100
AcDbEntity
  8
comment
  6
ByBlock
 62
    2
370
   -2
100
AcDbTrace
 10
313
 20
-4.000000000000015
 30
0
 11
312.5837153422272
 21
-1.500000000000015
 31
0
 12
313.4162846577728
 22
-1.500000000000015
 32
0
 13
313.4162846577728
 23
-1.500000000000015
 33
0
  0
ENDBLK
  5
72
330
70
100
AcDbEntity
  8
0
100
AcDbBlockEnd
  0
BLOCK
  5
74
330
73
100
AcDbEntity
  8
0
100
AcDbBlockBegin
  2
*D3
 70
    1
 10
0
 20
0
  3
*D3
  1

  0
LINE
  5
FC
100
AcDbEntity
  8
comment
  6
ByBlock
 62
    2
370
   -2
100
AcDbLine
 10
84.625
 20
64
 11
108.25
 21
64
  0
LINE
  5
FD
100
AcDbEntity
  8
comment
  6
ByBlock
 62
    2
370
   -2
100
AcDbLine
 10
84.625
 20
57
 11
108.25
 21
57
  0
LINE
  5
FE
100
AcDbEntity
  8
comment
  6
ByBlock
 62
    2
370
   -2
100
AcDbLine
 10
107
 20
64
 11
107
 21
57
  0
MTEXT
  5
FF
100
AcDbEntity
  8
comment
  6
CONTINUOUS
 62
    2
370
   -2
100
AcDbMText
 10
105.125
 20
69.48611111111111
 30
0
 40
2.5
 41
9.722222222222221
 71
    5
 72
    1
  1
7.0000
  7
standard
210
0
220
0
230
1
 50
90
 73
    2
 44
1
  0
SOLID
  5
100
100
AcDbEntity
  8
comment
  6
ByBlock
 62
    2
370
   -2
100
AcDbTrace
 10
107
 20
64
 30
0
 11
107.4162846577728
 21
61.5
 31
0
 12
106.5837153422272
 22
61.5
 32
0
 13
106.5837153422272
 23
61.5
 33
0
  0
SOLID
  5
101
100
AcDbEntity
  8
comment
  6
ByBlock
 62
    2
370
   -2
100
AcDbTrace
 10
107
 20
57
 30
0
 11
106.5837153422272
 21
59.5
 31
0
 12
107.4162846577728
 22
59.5
 32
0
 13
107.4162846577728
 23
59.5
 33
0
  0
ENDBLK
  5
75
330
73
100
AcDbEntity
  8
0
100
AcDbBlockEnd
  0
BLOCK
  5
77
330
76
100
AcDbEntity
  8
0
100
AcDbBlockBegin
  2
*D34
 70
    1
 10
0
 20
0
  3
*D34
  1

  0
LINE
  5
102
100
AcDbEntity
  8
comment
  6
ByBlock
 62
    2
370
   -2
100
AcDbLine
 10
251
 20
25.375
 11
251
 21
-14.25
  0
LINE
  5
103
100
AcDbEntity
  8
comment
  6
ByBlock
 62
    2
370
   -2
100
AcDbLine
 10
304
 20
25.375
 11
304
 21
-14.25
  0
LINE
  5
104
100
AcDbEntity
  8
comment
  6
ByBlock
 62
    2
370
   -2
100
AcDbLine
 10
251
 20
-13
 11
304
 21
-13
  0
MTEXT
  5
105
100
AcDbEntity
  8
comment
  6
CONTINUOUS
 62
    2
370
   -2
100
AcDbMText
 10
277.5
 20
-11.125
 30
0
 40
2.5
 41
11.66666666666698
 71
    5
 72
    1
  1
53.0000
  7
standard
210
0
220
0
230
1
 50
0
 73
    2
 44
1
  0
SOLID
  5
106
100
AcDbEntity
  8
comment
  6
ByBlock
 62
    2
370
   -2
100
AcDbTrace
 10
251
 20
-13
 30
0
 11
253.5
 21
-12.58371534222716
 31
0
 12
253.5
 22
-13.41628465777284
 32
0
 13
253.5
 23
-13.41628465777284
 33
0
  0
SOLID
  5
107
100
AcDbEntity
  8
comment
  6
ByBlock
 62
    2
370
   -2
100
AcDbTrace
 10
304
 20
-13
 30
0
 11
301.5
 21
-13.41628465777284
 31
0
 12
301.5
 22
-12.58371534222716
 32
0
 13
301.5
 23
-12.58371534222716
 33
0
  0
ENDBLK
  5
78
330
76
100
AcDbEntity
  8
0
100
AcDbBlockEnd
  0
BLOCK
  5
7A
330
79
100
AcDbEntity
  8
0
100
AcDbBlockBegin
  2
*D14
 70
    1
 10
0
 20
0
  3
*D14
  1

  0
LINE
  5
108
100
AcDbEntity
  8
comment
  6
ByBlock
 62
    2
370
   -2
100
AcDbLine
 10
9.999999999999998
 20
-3
 11
10
 21
9
  0
MTEXT
  5
109
100
AcDbEntity
  8
comment
  6
CONTINUOUS
 62
    2
370
   -2
100
AcDbMText
 10
8.125
 20
9.486111111111111
 30
0
 40
2.5
 41
9.722222222222221
 71
    5
 72
    1
  1
2.0000
  7
standard
210
0
220
0
230
1
 50
90
 73
    2
 44
1
  0
SOLID
  5
10A
100
AcDbEntity
  8
comment
  6
ByBlock
 62
    2
370
   -2
100
AcDbTrace
 10
10
 20
2
 30
0
 11
10.41628465777284
 21
-0.5000000000000001
 31
0
 12
9.58371534222716
 22
-0.5
 32
0
 13
9.58371534222716
 23
-0.5
 33
0
  0
SOLID
  5
10B
100
AcDbEntity
  8
comment
  6
ByBlock
 62
    2
370
   -2
100
AcDbTrace
 10
10
 20
4
 30
0
 11
9.58371534222716
 21
6.5
 31
0
 12
10.41628465777284
 22
6.5
 32
0
 13
10.41628465777284
 23
6.5
 33
0
  0
ENDBLK
  5
7B
330
79
100
AcDbEntity
  8
0
100
AcDbBlockEnd
  0
BLOCK
  5
7D
330
7C
100
AcDbEntity
  8
0
100
AcDbBlockBegin
  2
*D9
 70
    1
 10
0
 20
0
  3
*D9
  1

  0
LINE
  5
10C
100
AcDbEntity
  8
comment
  6
ByBlock
 62
    2
370
   -2
100
AcDbLine
 10
-4.625
 20
64
 11
-16.25
 21
64
  0
LINE
  5
10D
100
AcDbEntity
  8
comment
  6
ByBlock
 62
    2
370
   -2
100
AcDbLine
 10
-4.625
 20
-4
 11
-16.25
 21
-3.999999999999999
  0
LINE
  5
10E
100
AcDbEntity
  8
comment
  6
ByBlock
 62
    2
370
   -2
100
AcDbLine
 10
-15
 20
64
 11
-15
 21
-3.999999999999999
  0
MTEXT
  5
10F
100
AcDbEntity
  8
comment
  6
CONTINUOUS
 62
    2
370
   -2
100
AcDbMText
 10
-16.875
 20
30
 30
0
 40
2.5
 41
11.66666666666682
 71
    5
 72
    1
  1
68.0000
  7
standard
210
0
220
0
230
1
 50
90
 73
    2
 44
1
  0
SOLID
  5
110
100
AcDbEntity
  8
comment
  6
ByBlock
 62
    2
370
   -2
100
AcDbTrace
 10
-15
 20
64
 30
0
 11
-14.58371534222716
 21
61.5
 31
0
 12
-15.41628465777284
 22
61.5
 32
0
 13
-15.41628465777284
 23
61.5
 33
0
  0
SOLID
  5
111
100
AcDbEntity
  8
comment
  6
ByBlock
 62
    2
370
   -2
100
AcDbTrace
 10
-15
 20
-3.999999999999999
 30
0
 11
-15.41628465777284
 21
-1.499999999999999
 31
0
 12
-14.58371534222716
 22
-1.499999999999999
 32
0
 13
-14.58371534222716
 23
-1.499999999999999
 33
0
  0
ENDBLK
  5
7E
330
7C
100
AcDbEntity
  8
0
100
AcDbBlockEnd
  0
BLOCK
  5
80
330
7F
100
AcDbEntity
  8
0
100
AcDbBlockBegin
  2
*D32
 70
    1
 10
0
 20
0
  3
*D32
  1

  0
LINE
  5
112
100
AcDbEntity
  8
comment
  6
ByBlock
 62
    2
370
   -2
100
AcDbLine
 10
251
 20
26.375
 11
251
 21
4.75
  0
LINE
  5
113
100
AcDbEntity
  8
comment
  6
ByBlock
 62
    2
370
   -2
100
AcDbLine
 10
264
 20
26.375
 11
264
 21
4.75
  0
LINE
  5
114
100
AcDbEntity
  8
comment
  6
ByBlock
 62
    2
370
   -2
100
AcDbLine
 10
251
 20
6
 11
264
 21
6
  0
MTEXT
  5
115
100
AcDbEntity
  8
comment
  6
CONTINUOUS
 62
    2
370
   -2
100
AcDbMText
 10
257.5
 20
7.875
 30
0
 40
2.5
 41
11.11111111111127
 71
    5
 72
    1
  1
13.0000
  7
standard
210
0
220
0
230
1
 50
0
 73
    2
 44
1
  0
SOLID
  5
116
100
AcDbEntity
  8
comment
  6
ByBlock
 62
    2
370
   -2
100
AcDbTrace
 10
251
 20
6
 30
0
 11
253.5
 21
6.41628465777284
 31
0
 12
253.5
 22
5.583715342227159
 32
0
 13
253.5
 23
5.583715342227159
 33
0
  0
SOLID
  5
117
100
AcDbEntity
  8
comment
  6
ByBlock
 62
    2
370
   -2
100
AcDbTrace
 10
264
 20
6
 30
0
 11
261.5
 21
5.583715342227159
 31
0
 12
261.5
 22
6.416284657772841
 32
0
 13
261.5
 23
6.416284657772841
 33
0
  0
ENDBLK
  5
81
330
7F
100
AcDbEntity
  8
0
100
AcDbBlockEnd
  0
BLOCK
  5
83
330
82
100
AcDbEntity
  8
0
100
AcDbBlockBegin
  2
*D13
 70
    1
 10
0
 20
0
  3
*D13
  1

  0
LINE
  5
118
100
AcDbEntity
  8
comment
  6
ByBlock
 62
    2
370
   -2
100
AcDbLine
 10
63.625
 20
39
 11
115.25
 21
39
  0
LINE
  5
119
100
AcDbEntity
  8
comment
  6
ByBlock
 62
    2
370
   -2
100
AcDbLine
 10
63.625
 20
64
 11
115.25
 21
64
  0
LINE
  5
11A
100
AcDbEntity
  8
comment
  6
ByBlock
 62
    2
370
   -2
100
AcDbLine
 10
114
 20
39
 11
114
 21
64
  0
MTEXT
  5
11B
100
AcDbEntity
  8
comment
  6
CONTINUOUS
 62
    2
370
   -2
100
AcDbMText
 10
112.125
 20
51.49999999999999
 30
0
 40
2.5
 41
11.66666666666682
 71
    5
 72
    1
  1
25.0000
  7
standard
210
0
220
0
230
1
 50
90
 73
    2
 44
1
  0
SOLID
  5
11C
100
AcDbEntity
  8
comment
  6
ByBlock
 62
    2
370
   -2
100
AcDbTrace
 10
114
 20
39
 30
0
 11
113.5837153422272
 21
41.5
 31
0
 12
114.4162846577728
 22
41.5
 32
0
 13
114.4162846577728
 23
41.5
 33
0
  0
SOLID
  5
11D
100
AcDbEntity
  8
comment
  6
ByBlock
 62
    2
370
   -2
100
AcDbTrace
 10
114
 20
64
 30
0
 11
114.4162846577728
 21
61.5
 31
0
 12
113.5837153422272
 22
61.5
 32
0
 13
113.5837153422272
 23
61.5
 33
0
  0
ENDBLK
  5
84
330
82
100
AcDbEntity
  8
0
100
AcDbBlockEnd
  0
BLOCK
  5
86
330
85
100
AcDbEntity
  8
0
100
AcDbBlockBegin
  2
*D15
 70
    1
 10
0
 20
0
  3
*D15
  1

  0
LINE
  5
11E
100
AcDbEntity
  8
comment
  6
ByBlock
 62
    2
370
   -2
100
AcDbLine
 10
78
 20
57
 11
90
 21
57
  0
MTEXT
  5
11F
100
AcDbEntity
  8
comment
  6
CONTINUOUS
 62
    2
370
   -2
100
AcDbMText
 10
90.48611111111111
 20
58.875
 30
0
 40
2.5
 41
9.722222222222221
 71
    5
 72
    1
  1
2.0000
  7
standard
210
0
220
0
230
1
 50
0
 73
    2
 44
1
  0
SOLID
  5
120
100
AcDbEntity
  8
comment
  6
ByBlock
 62
    2
370
   -2
100
AcDbTrace
 10
83
 20
57
 30
0
 11
80.5
 21
56.58371534222716
 31
0
 12
80.5
 22
57.41628465777284
 32
0
 13
80.5
 23
57.41628465777284
 33
0
  0
SOLID
  5
121
100
AcDbEntity
  8
comment
  6
ByBlock
 62
    2
370
   -2
100
AcDbTrace
 10
85
 20
57
 30
0
 11
87.5
 21
57.41628465777284
 31
0
 12
87.5
 22
56.58371534222716
 32
0
 13
87.5
 23
56.58371534222716
 33
0
  0
ENDBLK
  5
87
330
85
100
AcDbEntity
  8
0
100
AcDbBlockEnd
  0
BLOCK
  5
89
330
88
100
AcDbEntity
  8
0
100
AcDbBlockBegin
  2
*D21
 70
    1
 10
0
 20
0
  3
*D21
  1

  0
LINE
  5
122
100
AcDbEntity
  8
comment
  6
ByBlock
 62
    2
370
   -2
100
AcDbLine
 10
214.9411884050498
 20
56.78464161525503
 11
226.9411884050498
 21
56.78464161525503
  0
MTEXT
  5
123
100
AcDbEntity
  8
comment
  6
CONTINUOUS
 62
    2
370
   -2
100
AcDbMText
 10
227.4272995161609
 20
58.65964161525503
 30
0
 40
2.5
 41
9.722222222222221
 71
    5
 72
    1
  1
2.0000
  7
standard
210
0
220
0
230
1
 50
0
 73
    2
 44
1
  0
SOLID
  5
124
100
AcDbEntity
  8
comment
  6
ByBlock
 62
    2
370
   -2
100
AcDbTrace
 10
219.9411884050498
 20
56.78464161525503
 30
0
 11
217.4411884050498
 21
56.36835695748218
 31
0
 12
217.4411884050498
 22
57.20092627302787
 32
0
 13
217.4411884050498
 23
57.20092627302787
 33
0
  0
SOLID
  5
125
100
AcDbEntity
  8
comment
  6
ByBlock
 62
    2
370
   -2
100
AcDbTrace
 10
221.9411884050498
 20
56.78464161525503
 30
0
 11
224.4411884050498
 21
57.20092627302787
 31
0
 12
224.4411884050498
 22
56.36835695748218
 32
0
 13
224.4411884050498
 23
56.36835695748218
 33
0
  0
ENDBLK
  5
8A
330
88
100
AcDbEntity
  8
0
100
AcDbBlockEnd
  0
BLOCK
  5
8C
330
8B
100
AcDbEntity
  8
0
100
AcDbBlockBegin
  2
*D33
 70
    1
 10
0
 20
0
  3
*D33
  1

  0
LINE
  5
126
100
AcDbEntity
  8
comment
  6
ByBlock
 62
    2
370
   -2
100
AcDbLine
 10
284.625
 20
57
 11
309.25
 21
57
  0
LINE
  5
127
100
AcDbEntity
  8
comment
  6
ByBlock
 62
    2
370
   -2
100
AcDbLine
 10
284.625
 20
64
 11
309.25
 21
64
  0
LINE
  5
128
100
AcDbEntity
  8
comment
  6
ByBlock
 62
    2
370
   -2
100
AcDbLine
 10
308
 20
57
 11
308
 21
64
  0
MTEXT
  5
129
100
AcDbEntity
  8
comment
  6
CONTINUOUS
 62
    2
370
   -2
100
AcDbMText
 10
306.125
 20
69.48611111111111
 30
0
 40
2.5
 41
9.722222222222221
 71
    5
 72
    1
  1
7.0000
  7
standard
210
0
220
0
230
1
 50
90
 73
    2
 44
1
  0
SOLID
  5
12A
100
AcDbEntity
  8
comment
  6
ByBlock
 62
    2
370
   -2
100
AcDbTrace
 10
308
 20
57
 30
0
 11
307.5837153422272
 21
59.5
 31
0
 12
308.4162846577728
 22
59.5
 32
0
 13
308.4162846577728
 23
59.5
 33
0
  0
SOLID
  5
12B
100
AcDbEntity
  8
comment
  6
ByBlock
 62
    2
370
   -2
100
AcDbTrace
 10
308
 20
64
 30
0
 11
308.4162846577728
 21
61.5
 31
0
 12
307.5837153422272
 22
61.5
 32
0
 13
307.5837153422272
 23
61.5
 33
0
  0
ENDBLK
  5
8D
330
8B
100
AcDbEntity
  8
0
100
AcDbBlockEnd
  0
BLOCK
  5
8F
330
8E
100
AcDbEntity
  8
0
100
AcDbBlockBegin
  2
*D20
 70
    1
 10
0
 20
0
  3
*D20
  1

  0
LINE
  5
12C
100
AcDbEntity
  8
comment
  6
ByBlock
 62
    2
370
   -2
100
AcDbLine
 10
283.9411884050498
 20
-3.215358384744974
 11
283.9411884050498
 21
8.784641615255026
  0
MTEXT
  5
12D
100
AcDbEntity
  8
comment
  6
CONTINUOUS
 62
    2
370
   -2
100
AcDbMText
 10
282.0661884050498
 20
9.270752726366137
 30
0
 40
2.5
 41
9.722222222222221
 71
    5
 72
    1
  1
2.0000
  7
standard
210
0
220
0
230
1
 50
90
 73
    2
 44
1
  0
SOLID
  5
12E
100
AcDbEntity
  8
comment
  6
ByBlock
 62
    2
370
   -2
100
AcDbTrace
 10
283.9411884050498
 20
1.784641615255026
 30
0
 11
284.3574730628227
 21
-0.7153583847449739
 31
0
 12
283.524903747277
 22
-0.7153583847449738
 32
0
 13
283.524903747277
 23
-0.7153583847449738
 33
0
  0
SOLID
  5
12F
100
AcDbEntity
  8
comment
  6
ByBlock
 62
    2
370
   -2
100
AcDbTrace
 10
283.9411884050498
 20
3.784641615255026
 30
0
 11
283.524903747277
 21
6.284641615255026
 31
0
 12
284.3574730628227
 22
6.284641615255026
 32
0
 13
284.3574730628227
 23
6.284641615255026
 33
0
  0
ENDBLK
  5
90
330
8E
100
AcDbEntity
  8
0
100
AcDbBlockEnd
  0
BLOCK
  5
92
330
91
100
AcDbEntity
  8
0
100
AcDbBlockBegin
  2
*D7
 70
    1
 10
0
 20
0
  3
*D7
  1

  0
LINE
  5
130
100
AcDbEntity
  8
comment
  6
ByBlock
 62
    2
370
   -2
100
AcDbLine
 10
-4
 20
2.375
 11
-4.000000000000002
 21
-9.25
  0
LINE
  5
131
100
AcDbEntity
  8
comment
  6
ByBlock
 62
    2
370
   -2
100
AcDbLine
 10
10
 20
2.375
 11
9.999999999999998
 21
-9.25
  0
LINE
  5
132
100
AcDbEntity
  8
comment
  6
ByBlock
 62
    2
370
   -2
100
AcDbLine
 10
-4.000000000000002
 20
-8
 11
9.999999999999998
 21
-8
  0
MTEXT
  5
133
100
AcDbEntity
  8
comment
  6
CONTINUOUS
 62
    2
370
   -2
100
AcDbMText
 10
2.999999999999998
 20
-6.125
 30
0
 40
2.5
 41
11.38888888888889
 71
    5
 72
    1
  1
14.0000
  7
standard
210
0
220
0
230
1
 50
0
 73
    2
 44
1
  0
SOLID
  5
134
100
AcDbEntity
  8
comment
  6
ByBlock
 62
    2
370
   -2
100
AcDbTrace
 10
-4.000000000000002
 20
-8
 30
0
 11
-1.500000000000002
 21
-7.58371534222716
 31
0
 12
-1.500000000000002
 22
-8.416284657772842
 32
0
 13
-1.500000000000002
 23
-8.416284657772842
 33
0
  0
SOLID
  5
135
100
AcDbEntity
  8
comment
  6
ByBlock
 62
    2
370
   -2
100
AcDbTrace
 10
9.999999999999998
 20
-8
 30
0
 11
7.499999999999998
 21
-8.41628465777284
 31
0
 12
7.499999999999998
 22
-7.583715342227159
 32
0
 13
7.499999999999998
 23
-7.583715342227159
 33
0
  0
ENDBLK
  5
93
330
91
100
AcDbEntity
  8
0
100
AcDbBlockEnd
  0
BLOCK
  5
95
330
94
100
AcDbEntity
  8
0
100
AcDbBlockBegin
  2
*D12
 70
    1
 10
0
 20
0
  3
*D12
  1

  0
LINE
  5
136
100
AcDbEntity
  8
comment
  6
ByBlock
 62
    2
370
   -2
100
AcDbLine
 10
38
 20
13.375
 11
37.99999999999999
 21
-14.25
  0
LINE
  5
137
100
AcDbEntity
  8
comment
  6
ByBlock
 62
    2
370
   -2
100
AcDbLine
 10
-4
 20
13.375
 11
-4.000000000000005
 21
-14.25
  0
LINE
  5
138
100
AcDbEntity
  8
comment
  6
ByBlock
 62
    2
370
   -2
100
AcDbLine
 10
37.99999999999999
 20
-13
 11
-4.000000000000005
 21
-13
  0
MTEXT
  5
139
100
AcDbEntity
  8
comment
  6
CONTINUOUS
 62
    2
370
   -2
100
AcDbMText
 10
16.99999999999999
 20
-11.125
 30
0
 40
2.5
 41
11.94444444444445
 71
    5
 72
    1
  1
42.0000
  7
standard
210
0
220
0
230
1
 50
0
 73
    2
 44
1
  0
SOLID
  5
13A
100
AcDbEntity
  8
comment
  6
ByBlock
 62
    2
370
   -2
100
AcDbTrace
 10
37.99999999999999
 20
-13
 30
0
 11
35.49999999999999
 21
-13.41628465777284
 31
0
 12
35.49999999999999
 22
-12.58371534222716
 32
0
 13
35.49999999999999
 23
-12.58371534222716
 33
0
  0
SOLID
  5
13B
100
AcDbEntity
  8
comment
  6
ByBlock
 62
    2
370
   -2
100
AcDbTrace
 10
-4.000000000000005
 20
-13
 30
0
 11
-1.500000000000005
 21
-12.58371534222716
 31
0
 12
-1.500000000000005
 22
-13.41628465777284
 32
0
 13
-1.500000000000005
 23
-13.41628465777284
 33
0
  0
ENDBLK
  5
96
330
94
100
AcDbEntity
  8
0
100
AcDbBlockEnd
  0
BLOCK
  5
98
330
97
100
AcDbEntity
  8
0
100
AcDbBlockBegin
  2
*D5
 70
    1
 10
0
 20
0
  3
*D5
  1

  0
LINE
  5
13C
100
AcDbEntity
  8
comment
  6
ByBlock
 62
    2
370
   -2
100
AcDbLine
 10
84.625
 20
3
 11
108.25
 21
3
  0
LINE
  5
13D
100
AcDbEntity
  8
comment
  6
ByBlock
 62
    2
370
   -2
100
AcDbLine
 10
84.625
 20
-4
 11
108.25
 21
-4
  0
LINE
  5
13E
100
AcDbEntity
  8
comment
  6
ByBlock
 62
    2
370
   -2
100
AcDbLine
 10
107
 20
3
 11
107
 21
-4
  0
MTEXT
  5
13F
100
AcDbEntity
  8
comment
  6
CONTINUOUS
 62
    2
370
   -2
100
AcDbMText
 10
105.125
 20
8.486111111111111
 30
0
 40
2.5
 41
9.722222222222221
 71
    5
 72
    1
  1
7.0000
  7
standard
210
0
220
0
230
1
 50
90
 73
    2
 44
1
  0
SOLID
  5
140
100
AcDbEntity
  8
comment
  6
ByBlock
 62
    2
370
   -2
100
AcDbTrace
 10
107
 20
3
 30
0
 11
107.4162846577728
 21
0.4999999999999999
 31
0
 12
106.5837153422272
 22
0.5
 32
0
 13
106.5837153422272
 23
0.5
 33
0
  0
SOLID
  5
141
100
AcDbEntity
  8
comment
  6
ByBlock
 62
    2
370
   -2
100
AcDbTrace
 10
107
 20
-4
 30
0
 11
106.5837153422272
 21
-1.5
 31
0
 12
107.4162846577728
 22
-1.5
 32
0
 13
107.4162846577728
 23
-1.5
 33
0
  0
ENDBLK
  5
99
330
97
100
AcDbEntity
  8
0
100
AcDbBlockEnd
  0
BLOCK
  5
9B
330
9A
100
AcDbEntity
  8
0
100
AcDbBlockBegin
  2
*D8
 70
    1
 10
0
 20
0
  3
*D8
  1

  0
LINE
  5
142
100
AcDbEntity
  8
comment
  6
ByBlock
 62
    2
370
   -2
100
AcDbLine
 10
-4
 20
64.625
 11
-3.999999999999999
 21
77.25
  0
LINE
  5
143
100
AcDbEntity
  8
comment
  6
ByBlock
 62
    2
370
   -2
100
AcDbLine
 10
104
 20
64.625
 11
104
 21
77.25
  0
LINE
  5
144
100
AcDbEntity
  8
comment
  6
ByBlock
 62
    2
370
   -2
100
AcDbLine
 10
-3.999999999999999
 20
76
 11
104
 21
76
  0
MTEXT
  5
145
100
AcDbEntity
  8
comment
  6
CONTINUOUS
 62
    2
370
   -2
100
AcDbMText
 10
50
 20
77.875
 30
0
 40
2.5
 41
13.05555555555556
 71
    5
 72
    1
  1
108.0000
  7
standard
210
0
220
0
230
1
 50
0
 73
    2
 44
1
  0
SOLID
  5
146
100
AcDbEntity
  8
comment
  6
ByBlock
 62
    2
370
   -2
100
AcDbTrace
 10
-3.999999999999999
 20
76
 30
0
 11
-1.499999999999999
 21
76.41628465777283
 31
0
 12
-1.499999999999999
 22
75.58371534222717
 32
0
 13
-1.499999999999999
 23
75.58371534222717
 33
0
  0
SOLID
  5
147
100
AcDbEntity
  8
comment
  6
ByBlock
 62
    2
370
   -2
100
AcDbTrace
 10
104
 20
76
 30
0
 11
101.5
 21
75.58371534222717
 31
0
 12
101.5
 22
76.41628465777283
 32
0
 13
101.5
 23
76.41628465777283
 33
0
  0
ENDBLK
  5
9C
330
9A
100
AcDbEntity
  8
0
100
AcDbBlockEnd
  0
BLOCK
  5
9E
330
9D
100
AcDbEntity
  8
0
100
AcDbBlockBegin
  2
*D31
 70
    1
 10
0
 20
0
  3
*D31
  1

  0
LINE
  5
148
100
AcDbEntity
  8
comment
  6
ByBlock
 62
    2
370
   -2
100
AcDbLine
 10
264.625
 20
27
 11
274.25
 21
27
  0
LINE
  5
149
100
AcDbEntity
  8
comment
  6
ByBlock
 62
    2
370
   -2
100
AcDbLine
 10
264.625
 20
22
 11
274.25
 21
22
  0
LINE
  5
14A
100
AcDbEntity
  8
comment
  6
ByBlock
 62
    2
370
   -2
100
AcDbLine
 10
273
 20
32
 11
273
 21
17
  0
MTEXT
  5
14B
100
AcDbEntity
  8
comment
  6
CONTINUOUS
 62
    2
370
   -2
100
AcDbMText
 10
271.125
 20
32.48611111111119
 30
0
 40
2.5
 41
9.722222222222378
 71
    5
 72
    1
  1
5.0000
  7
standard
210
0
220
0
230
1
 50
90
 73
    2
 44
1
  0
SOLID
  5
14C
100
AcDbEntity
  8
comment
  6
ByBlock
 62
    2
370
   -2
100
AcDbTrace
 10
273
 20
27
 30
0
 11
272.5837153422272
 21
29.5
 31
0
 12
273.4162846577728
 22
29.5
 32
0
 13
273.4162846577728
 23
29.5
 33
0
  0
SOLID
  5
14D
100
AcDbEntity
  8
comment
  6
ByBlock
 62
    2
370
   -2
100
AcDbTrace
 10
273
 20
22
 30
0
 11
273.4162846577728
 21
19.5
 31
0
 12
272.5837153422272
 22
19.5
 32
0
 13
272.5837153422272
 23
19.5
 33
0
  0
ENDBLK
  5
9F
330
9D
100
AcDbEntity
  8
0
100
AcDbBlockEnd
  0
BLOCK
  5
A1
330
A0
100
AcDbEntity
  8
0
100
AcDbBlockBegin
  2
*D27
 70
    1
 10
0
 20
0
  3
*D27
  1

  0
LINE
  5
14E
100
AcDbEntity
  8
comment
  6
ByBlock
 62
    2
370
   -2
100
AcDbLine
 10
284
 20
2.375
 11
284
 21
-8.25
  0
LINE
  5
14F
100
AcDbEntity
  8
comment
  6
ByBlock
 62
    2
370
   -2
100
AcDbLine
 10
304
 20
2.375
 11
304
 21
-8.25
  0
LINE
  5
150
100
AcDbEntity
  8
comment
  6
ByBlock
 62
    2
370
   -2
100
AcDbLine
 10
284
 20
-7
 11
304
 21
-7
  0
MTEXT
  5
151
100
AcDbEntity
  8
comment
  6
CONTINUOUS
 62
    2
370
   -2
100
AcDbMText
 10
294
 20
-5.125
 30
0
 40
2.5
 41
11.66666666666667
 71
    5
 72
    1
  1
20.0000
  7
standard
210
0
220
0
230
1
 50
0
 73
    2
 44
1
  0
SOLID
  5
152
100
AcDbEntity
  8
comment
  6
ByBlock
 62
    2
370
   -2
100
AcDbTrace
 10
284
 20
-7
 30
0
 11
286.5
 21
-6.58371534222716
 31
0
 12
286.5
 22
-7.416284657772841
 32
0
 13
286.5
 23
-7.416284657772841
 33
0
  0
SOLID
  5
153
100
AcDbEntity
  8
comment
  6
ByBlock
 62
    2
370
   -2
100
AcDbTrace
 10
304
 20
-7
 30
0
 11
301.5
 21
-7.416284657772841
 31
0
 12
301.5
 22
-6.583715342227159
 32
0
 13
301.5
 23
-6.583715342227159
 33
0
  0
ENDBLK
  5
A2
330
A0
100
AcDbEntity
  8
0
100
AcDbBlockEnd
  0
BLOCK
  5
A4
330
A3
100
AcDbEntity
  8
0
100
AcDbBlockBegin
  2
*D28
 70
    1
 10
0
 20
0
  3
*D28
  1

  0
LINE
  5
154
100
AcDbEntity
  8
comment
  6
ByBlock
 62
    2
370
   -2
100
AcDbLine
 10
284.625
 20
3
 11
308.25
 21
2.999999999999994
  0
LINE
  5
155
100
AcDbEntity
  8
comment
  6
ByBlock
 62
    2
370
   -2
100
AcDbLine
 10
284.625
 20
-4
 11
308.25
 21
-4.000000000000005
  0
LINE
  5
156
100
AcDbEntity
  8
comment
  6
ByBlock
 62
    2
370
   -2
100
AcDbLine
 10
307
 20
2.999999999999994
 11
307
 21
-4.000000000000005
  0
MTEXT
  5
157
100
AcDbEntity
  8
comment
  6
CONTINUOUS
 62
    2
370
   -2
100
AcDbMText
 10
305.125
 20
8.486111111111105
 30
0
 40
2.5
 41
9.722222222222221
 71
    5
 72
    1
  1
7.0000
  7
standard
210
0
220
0
230
1
 50
90
 73
    2
 44
1
  0
SOLID
  5
158
100
AcDbEntity
  8
comment
  6
ByBlock
 62
    2
370
   -2
100
AcDbTrace
 10
307
 20
2.999999999999994
 30
0
 11
307.4162846577728
 21
0.4999999999999942
 31
0
 12
306.5837153422272
 22
0.4999999999999942
 32
0
 13
306.5837153422272
 23
0.4999999999999942
 33
0
  0
SOLID
  5
159
100
AcDbEntity
  8
comment
  6
ByBlock
 62
    2
370
   -2
100
AcDbTrace
 10
307
 20
-4.000000000000005
 30
0
 11
306.5837153422272
 21
-1.500000000000005
 31
0
 12
307.4162846577728
 22
-1.500000000000005
 32
0
 13
307.4162846577728
 23
-1.500000000000005
 33
0
  0
ENDBLK
  5
A5
330
A3
100
AcDbEntity
  8
0
100
AcDbBlockEnd
  0
BLOCK
  5
A7
330
A6
100
AcDbEntity
  8
0
100
AcDbBlockBegin
  2
*D18
 70
    1
 10
0
 20
0
  3
*D18
  1

  0
LINE
  5
15A
100
AcDbEntity
  8
comment
  6
ByBlock
 62
    2
370
   -2
100
AcDbLine
 10
209.9411884050498
 20
-3.215358384744974
 11
209.9411884050498
 21
8.784641615255026
  0
MTEXT
  5
15B
100
AcDbEntity
  8
comment
  6
CONTINUOUS
 62
    2
370
   -2
100
AcDbMText
 10
208.0661884050498
 20
9.270752726366137
 30
0
 40
2.5
 41
9.722222222222221
 71
    5
 72
    1
  1
2.0000
  7
standard
210
0
220
0
230
1
 50
90
 73
    2
 44
1
  0
SOLID
  5
15C
100
AcDbEntity
  8
comment
  6
ByBlock
 62
    2
370
   -2
100
AcDbTrace
 10
209.9411884050498
 20
1.784641615255026
 30
0
 11
210.3574730628227
 21
-0.7153583847449739
 31
0
 12
209.524903747277
 22
-0.7153583847449738
 32
0
 13
209.524903747277
 23
-0.7153583847449738
 33
0
  0
SOLID
  5
15D
100
AcDbEntity
  8
comment
  6
ByBlock
 62
    2
370
   -2
100
AcDbTrace
 10
209.9411884050498
 20
3.784641615255026
 30
0
 11
209.524903747277
 21
6.284641615255026
 31
0
 12
210.3574730628227
 22
6.284641615255026
 32
0
 13
210.3574730628227
 23
6.284641615255026
 33
0
  0
ENDBLK
  5
A8
330
A6
100
AcDbEntity
  8
0
100
AcDbBlockEnd
  0
BLOCK
  5
AA
330
A9
100
AcDbEntity
  8
0
100
AcDbBlockBegin
  2
*D22
 70
    1
 10
0
 20
0
  3
*D22
  1

  0
LINE
  5
15E
100
AcDbEntity
  8
comment
  6
ByBlock
 62
    2
370
   -2
100
AcDbLine
 10
199.375
 20
-4
 11
184.75
 21
-3.999999999999998
  0
LINE
  5
15F
100
AcDbEntity
  8
comment
  6
ByBlock
 62
    2
370
   -2
100
AcDbLine
 10
199.375
 20
64
 11
184.75
 21
64
  0
LINE
  5
160
100
AcDbEntity
  8
comment
  6
ByBlock
 62
    2
370
   -2
100
AcDbLine
 10
186
 20
-3.999999999999998
 11
186
 21
64
  0
MTEXT
  5
161
100
AcDbEntity
  8
comment
  6
CONTINUOUS
 62
    2
370
   -2
100
AcDbMText
 10
184.125
 20
30
 30
0
 40
2.5
 41
11.66666666666682
 71
    5
 72
    1
  1
68.0000
  7
standard
210
0
220
0
230
1
 50
90
 73
    2
 44
1
  0
SOLID
  5
162
100
AcDbEntity
  8
comment
  6
ByBlock
 62
    2
370
   -2
100
AcDbTrace
 10
186
 20
-3.999999999999998
 30
0
 11
185.5837153422272
 21
-1.499999999999998
 31
0
 12
186.4162846577728
 22
-1.499999999999998
 32
0
 13
186.4162846577728
 23
-1.499999999999998
 33
0
  0
SOLID
  5
163
100
AcDbEntity
  8
comment
  6
ByBlock
 62
    2
370
   -2
100
AcDbTrace
 10
186
 20
64
 30
0
 11
186.4162846577728
 21
61.5
 31
0
 12
185.5837153422272
 22
61.5
 32
0
 13
185.5837153422272
 23
61.5
 33
0
  0
ENDBLK
  5
AB
330
A9
100
AcDbEntity
  8
0
100
AcDbBlockEnd
  0
BLOCK
  5
AD
330
AC
100
AcDbEntity
  8
0
100
AcDbBlockBegin
  2
*D17
 70
    1
 10
0
 20
0
  3
*D17
  1

  0
LINE
  5
164
100
AcDbEntity
  8
comment
  6
ByBlock
 62
    2
370
   -2
100
AcDbLine
 10
15
 20
57
 11
27
 21
57
  0
MTEXT
  5
165
100
AcDbEntity
  8
comment
  6
CONTINUOUS
 62
    2
370
   -2
100
AcDbMText
 10
27.48611111111111
 20
58.875
 30
0
 40
2.5
 41
9.722222222222221
 71
    5
 72
    1
  1
2.0000
  7
standard
210
0
220
0
230
1
 50
0
 73
    2
 44
1
  0
SOLID
  5
166
100
AcDbEntity
  8
comment
  6
ByBlock
 62
    2
370
   -2
100
AcDbTrace
 10
20
 20
57
 30
0
 11
17.5
 21
56.58371534222716
 31
0
 12
17.5
 22
57.41628465777284
 32
0
 13
17.5
 23
57.41628465777284
 33
0
  0
SOLID
  5
167
100
AcDbEntity
  8
comment
  6
ByBlock
 62
    2
370
   -2
100
AcDbTrace
 10
22
 20
57
 30
0
 11
24.5
 21
57.41628465777284
 31
0
 12
24.5
 22
56.58371534222716
 32
0
 13
24.5
 23
56.58371534222716
 33
0
  0
ENDBLK
  5
AE
330
AC
100
AcDbEntity
  8
0
100
AcDbBlockEnd
  0
BLOCK
  5
B0
330
AF
100
AcDbEntity
  8
0
100
AcDbBlockBegin
  2
*D24
 70
    1
 10
0
 20
0
  3
*D24
  1

  0
LINE
  5
168
100
AcDbEntity
  8
comment
  6
ByBlock
 62
    2
370
   -2
100
AcDbLine
 10
220.375
 20
57
 11
190.75
 21
57
  0
LINE
  5
169
100
AcDbEntity
  8
comment
  6
ByBlock
 62
    2
370
   -2
100
AcDbLine
 10
220.375
 20
64
 11
190.75
 21
64
  0
LINE
  5
16A
100
AcDbEntity
  8
comment
  6
ByBlock
 62
    2
370
   -2
100
AcDbLine
 10
192
 20
57
 11
192
 21
64
  0
MTEXT
  5
16B
100
AcDbEntity
  8
comment
  6
CONTINUOUS
 62
    2
370
   -2
100
AcDbMText
 10
190.125
 20
69.48611111111111
 30
0
 40
2.5
 41
9.722222222222221
 71
    5
 72
    1
  1
7.0000
  7
standard
210
0
220
0
230
1
 50
90
 73
    2
 44
1
  0
SOLID
  5
16C
100
AcDbEntity
  8
comment
  6
ByBlock
 62
    2
370
   -2
100
AcDbTrace
 10
192
 20
57
 30
0
 11
191.5837153422272
 21
59.5
 31
0
 12
192.4162846577728
 22
59.5
 32
0
 13
192.4162846577728
 23
59.5
 33
0
  0
SOLID
  5
16D
100
AcDbEntity
  8
comment
  6
ByBlock
 62
    2
370
   -2
100
AcDbTrace
 10
192
 20
64
 30
0
 11
192.4162846577728
 21
61.5
 31
0
 12
191.5837153422272
 22
61.5
 32
0
 13
191.5837153422272
 23
61.5
 33
0
  0
ENDBLK
  5
B1
330
AF
100
AcDbEntity
  8
0
100
AcDbBlockEnd
  0
BLOCK
  5
B3
330
B2
100
AcDbEntity
  8
0
100
AcDbBlockBegin
  2
*D25
 70
    1
 10
0
 20
0
  3
*D25
  1

  0
LINE
  5
16E
100
AcDbEntity
  8
comment
  6
ByBlock
 62
    2
370
   -2
100
AcDbLine
 10
221
 20
57.625
 11
221
 21
68.25
  0
LINE
  5
16F
100
AcDbEntity
  8
comment
  6
ByBlock
 62
    2
370
   -2
100
AcDbLine
 10
196
 20
57.625
 11
196
 21
68.25
  0
LINE
  5
170
100
AcDbEntity
  8
comment
  6
ByBlock
 62
    2
370
   -2
100
AcDbLine
 10
221
 20
67
 11
196
 21
67
  0
MTEXT
  5
171
100
AcDbEntity
  8
comment
  6
CONTINUOUS
 62
    2
370
   -2
100
AcDbMText
 10
208.5
 20
68.875
 30
0
 40
2.5
 41
11.66666666666682
 71
    5
 72
    1
  1
25.0000
  7
standard
210
0
220
0
230
1
 50
0
 73
    2
 44
1
  0
SOLID
  5
172
100
AcDbEntity
  8
comment
  6
ByBlock
 62
    2
370
   -2
100
AcDbTrace
 10
221
 20
67
 30
0
 11
218.5
 21
66.58371534222717
 31
0
 12
218.5
 22
67.41628465777283
 32
0
 13
218.5
 23
67.41628465777283
 33
0
  0
SOLID
  5
173
100
AcDbEntity
  8
comment
  6
ByBlock
 62
    2
370
   -2
100
AcDbTrace
 10
196
 20
67
 30
0
 11
198.5
 21
67.41628465777283
 31
0
 12
198.5
 22
66.58371534222717
 32
0
 13
198.5
 23
66.58371534222717
 33
0
  0
ENDBLK
  5
B4
330
B2
100
AcDbEntity
  8
0
100
AcDbBlockEnd
  0
BLOCK
  5
B6
330
B5
100
AcDbEntity
  8
0
100
AcDbBlockBegin
  2
*D29
 70
    1
 10
0
 20
0
  3
*D29
  1

  0
LINE
  5
174
100
AcDbEntity
  8
comment
  6
ByBlock
 62
    2
370
   -2
100
AcDbLine
 10
210
 20
2.375
 11
210
 21
-9.25
  0
LINE
  5
175
100
AcDbEntity
  8
comment
  6
ByBlock
 62
    2
370
   -2
100
AcDbLine
 10
196
 20
2.375
 11
196
 21
-9.25
  0
LINE
  5
176
100
AcDbEntity
  8
comment
  6
ByBlock
 62
    2
370
   -2
100
AcDbLine
 10
210
 20
-8
 11
196
 21
-8
  0
MTEXT
  5
177
100
AcDbEntity
  8
comment
  6
CONTINUOUS
 62
    2
370
   -2
100
AcDbMText
 10
203
 20
-6.125
 30
0
 40
2.5
 41
11.38888888888889
 71
    5
 72
    1
  1
14.0000
  7
standard
210
0
220
0
230
1
 50
0
 73
    2
 44
1
  0
SOLID
  5
178
100
AcDbEntity
  8
comment
  6
ByBlock
 62
    2
370
   -2
100
AcDbTrace
 10
210
 20
-8
 30
0
 11
207.5
 21
-8.41628465777284
 31
0
 12
207.5
 22
-7.583715342227159
 32
0
 13
207.5
 23
-7.583715342227159
 33
0
  0
SOLID
  5
179
100
AcDbEntity
  8
comment
  6
ByBlock
 62
    2
370
   -2
100
AcDbTrace
 10
196
 20
-8
 30
0
 11
198.5
 21
-7.58371534222716
 31
0
 12
198.5
 22
-8.416284657772842
 32
0
 13
198.5
 23
-8.416284657772842
 33
0
  0
ENDBLK
  5
B7
330
B5
100
AcDbEntity
  8
0
100
AcDbBlockEnd
  0
ENDSEC
  0
SECTION
  2
ENTITIES
  0
HATCH
  5
17A
100
AcDbEntity
  8
fill
  6
ByLayer
 62
  256
370
   -1
100
AcDbHatch
 10
0
 20
0
 30
0
210
0
220
0
230
1
  2
clay
 70
    0
 71
    0
 91
    1
 92
    0
 93
   16
 72
    2
 10
10
 20
3
 40
1
 50
0
 51
360
 73
    1
 72
    2
 10
84
 20
3
 40
1
 50
0
 51
360
 73
    1
 72
    2
 10
21
 20
57
 40
1
 50
0
 51
360
 73
    1
 72
    2
 10
84
 20
57
 40
1
 50
0
 51
360
 73
    1
 72
    1
 10
38
 20
14
 11
63
 21
14
 72
    1
 10
63
 20
14
 11
63
 21
39
 72
    1
 10
63
 20
39
 11
38
 21
39
 72
    1
 10
38
 20
39
 11
38
 21
14
 72
    1
 10
0
 20
-4
 11
100
 21
-4
 72
    2
 10
100
 20
0
 40
4
 50
270
 51
0
 73
    1
 72
    1
 10
104
 20
0
 11
104
 21
60
 72
    2
 10
100
 20
60
 40
4
 50
0
 51
90
 73
    1
 72
    1
 10
100
 20
64
 11
0
 21
64
 72
    2
 10
0
 20
60
 40
4
 50
90
 51
180
 73
    1
 72
    1
 10
-4
 20
60
 11
-4
 21
0
 72
    2
 10
0
 20
0
 40
4
 50
180
 51
270
 73
    1
 97
    0
 75
    0
 76
    1
 52
0.7853981633974483
 41
0.5
 77
    0
 78
    0
 98
    0
  0
HATCH
  5
17B
100
AcDbEntity
  8
fill
  6
ByLayer
 62
  256
370
   -1
100
AcDbHatch
 10
0
 20
0
 30
0
210
0
220
0
230
1
  2
clay
 70
    0
 71
    0
 91
    1
 92
    0
 93
   54
 72
    2
 10
210
 20
3
 40
1
 50
0
 51
360
 73
    1
 72
    2
 10
284
 20
3
 40
1
 50
0
 51
360
 73
    1
 72
    2
 10
221
 20
57
 40
1
 50
0
 51
360
 73
    1
 72
    2
 10
284
 20
57
 40
1
 50
0
 51
360
 73
    1
 72
    1
 10
200
 20
-4
 11
300
 21
-4
 72
    2
 10
300
 20
0
 40
4
 50
270
 51
0
 73
    1
 72
    1
 10
304
 20
0
 11
304
 21
60
 72
    2
 10
300
 20
60
 40
4
 50
0
 51
90
 73
    1
 72
    1
 10
300
 20
64
 11
200
 21
64
 72
    2
 10
200
 20
60
 40
4
 50
90
 51
180
 73
    1
 72
    1
 10
196
 20
60
 11
196
 21
0
 72
    2
 10
200
 20
0
 40
4
 50
180
 51
270
 73
    1
 72
    1
 10
242.3301270189222
 20
24.5
 11
242.3301270189222
 21
29.5
 72
    1
 10
242.3301270189222
 20
29.5
 11
238
 21
32
 72
    1
 10
238
 20
32
 11
233.6698729810778
 21
29.5
 72
    1
 10
233.6698729810778
 20
29.5
 11
233.6698729810778
 21
24.5
 72
    1
 10
233.6698729810778
 20
24.5
 11
238
 21
22
 72
    1
 10
238
 20
22
 11
242.3301270189222
 21
24.5
 72
    1
 10
249.3301270189222
 20
35.5
 11
249.3301270189222
 21
40.5
 72
    1
 10
249.3301270189222
 20
40.5
 11
245
 21
43
 72
    1
 10
245
 20
43
 11
240.6698729810778
 21
40.5
 72
    1
 10
240.6698729810778
 20
40.5
 11
240.6698729810778
 21
35.50000000000001
 72
    1
 10
240.6698729810778
 20
35.50000000000001
 11
245
 21
33
 72
    1
 10
245
 20
33
 11
249.3301270189222
 21
35.5
 72
    1
 10
261.3301270189222
 20
35.5
 11
261.3301270189222
 21
40.5
 72
    1
 10
261.3301270189222
 20
40.5
 11
257
 21
43
 72
    1
 10
257
 20
43
 11
252.6698729810778
 21
40.5
 72
    1
 10
252.6698729810778
 20
40.5
 11
252.6698729810778
 21
35.50000000000001
 72
    1
 10
252.6698729810778
 20
35.50000000000001
 11
257
 21
33
 72
    1
 10
257
 20
33
 11
261.3301270189222
 21
35.5
 72
    1
 10
268.3301270189222
 20
24.5
 11
268.3301270189222
 21
29.5
 72
    1
 10
268.3301270189222
 20
29.5
 11
264
 21
32
 72
    1
 10
264
 20
32
 11
259.6698729810778
 21
29.5
 72
    1
 10
259.6698729810778
 20
29.5
 11
259.6698729810778
 21
24.5
 72
    1
 10
259.6698729810778
 20
24.5
 11
264
 21
22
 72
    1
 10
264
 20
22
 11
268.3301270189222
 21
24.5
 72
    1
 10
255.3301270189222
 20
24.5
 11
255.3301270189222
 21
29.5
 72
    1
 10
255.3301270189222
 20
29.5
 11
251
 21
32
 72
    1
 10
251
 20
32
 11
246.6698729810778
 21
29.5
 72
    1
 10
246.6698729810778
 20
29.5
 11
246.6698729810778
 21
24.5
 72
    1
 10
246.6698729810778
 20
24.5
 11
251
 21
22
 72
    1
 10
251
 20
22
 11
255.3301270189222
 21
24.5
 72
    1
 10
249.3301270189222
 20
13.5
 11
249.3301270189222
 21
18.5
 72
    1
 10
249.3301270189222
 20
18.5
 11
245
 21
21
 72
    1
 10
245
 20
21
 11
240.6698729810778
 21
18.5
 72
    1
 10
240.6698729810778
 20
18.5
 11
240.6698729810778
 21
13.5
 72
    1
 10
240.6698729810778
 20
13.5
 11
245
 21
11
 72
    1
 10
245
 20
11
 11
249.3301270189222
 21
13.5
 72
    1
 10
261.3301270189222
 20
13.5
 11
261.3301270189222
 21
18.5
 72
    1
 10
261.3301270189222
 20
18.5
 11
257
 21
21
 72
    1
 10
257
 20
21
 11
252.6698729810778
 21
18.5
 72
    1
 10
252.6698729810778
 20
18.5
 11
252.6698729810778
 21
13.5
 72
    1
 10
252.6698729810778
 20
13.5
 11
257
 21
11
 72
    1
 10
257
 20
11
 11
261.3301270189222
 21
13.5
 97
    0
 75
    0
 76
    1
 52
0.7853981633974483
 41
0.5
 77
    0
 78
    0
 98
    0
  0
CIRCLE
  5
17C
100
AcDbEntity
  8
0
  6
ByLayer
 62
  256
370
   -1
100
AcDbCircle
 10
10
 20
3
 40
1
  0
CIRCLE
  5
17D
100
AcDbEntity
  8
0
  6
ByLayer
 62
  256
370
   -1
100
AcDbCircle
 10
84
 20
3
 40
1
  0
CIRCLE
  5
17E
100
AcDbEntity
  8
0
  6
ByLayer
 62
  256
370
   -1
100
AcDbCircle
 10
21
 20
57
 40
1
  0
CIRCLE
  5
17F
100
AcDbEntity
  8
0
  6
ByLayer
 62
  256
370
   -1
100
AcDbCircle
 10
84
 20
57
 40
1
  0
LWPOLYLINE
  5
180
100
AcDbEntity
  8
0
  6
ByLayer
 62
  256
370
   -1
100
AcDbPolyline
 90
    4
 70
    1
 43
0
 10
38
 20
14
 10
63
 20
14
 10
63
 20
39
 10
38
 20
39
  0
DIMENSION
  5
181
100
AcDbEntity
  8
comment
  6
ByLayer
 62
  256
370
   -1
100
AcDbDimension
  2
*D1
 10
21
 20
67
 30
0
 11
8.5
 21
68.875
 31
0
 70
   33
 71
    5
  3
Standard
 53
0
210
0
220
0
230
1
100
AcDbAlignedDimension
 13
-4
 23
57
 33
0
 14
21
 24
57
 34
0
  0
DIMENSION
  5
182
100
AcDbEntity
  8
comment
  6
ByLayer
 62
  256
370
   -1
100
AcDbDimension
  2
*D2
 10
104
 20
67
 30
0
 11
94
 21
68.875
 31
0
 70
   33
 71
    5
  3
Standard
 53
0
210
0
220
0
230
1
100
AcDbAlignedDimension
 13
84
 23
57
 33
0
 14
104
 24
57
 34
0
  0
DIMENSION
  5
183
100
AcDbEntity
  8
comment
  6
ByLayer
 62
  256
370
   -1
100
AcDbDimension
  2
*D3
 10
107
 20
57
 30
0
 11
105.125
 21
60.5
 31
0
 70
   33
 71
    5
  3
Standard
 53
0
210
0
220
0
230
1
100
AcDbAlignedDimension
 13
84
 23
64
 33
0
 14
84
 24
57
 34
0
  0
DIMENSION
  5
184
100
AcDbEntity
  8
comment
  6
ByLayer
 62
  256
370
   -1
100
AcDbDimension
  2
*D4
 10
104
 20
-8
 30
0
 11
94
 21
-6.125
 31
0
 70
   33
 71
    5
  3
Standard
 53
0
210
0
220
0
230
1
100
AcDbAlignedDimension
 13
84
 23
3
 33
0
 14
104
 24
3
 34
0
  0
DIMENSION
  5
185
100
AcDbEntity
  8
comment
  6
ByLayer
 62
  256
370
   -1
100
AcDbDimension
  2
*D5
 10
107
 20
-4
 30
0
 11
105.125
 21
-0.5
 31
0
 70
   33
 71
    5
  3
Standard
 53
0
210
0
220
0
230
1
100
AcDbAlignedDimension
 13
84
 23
3
 33
0
 14
84
 24
-4
 34
0
  0
DIMENSION
  5
186
100
AcDbEntity
  8
comment
  6
ByLayer
 62
  256
370
   -1
100
AcDbDimension
  2
*D6
 10
-7
 20
-4
 30
0
 11
-8.875
 21
-0.5
 31
0
 70
   33
 71
    5
  3
Standard
 53
0
210
0
220
0
230
1
100
AcDbAlignedDimension
 13
10
 23
3
 33
0
 14
10
 24
-4
 34
0
  0
DIMENSION
  5
187
100
AcDbEntity
  8
comment
  6
ByLayer
 62
  256
370
   -1
100
AcDbDimension
  2
*D7
 10
10
 20
-8
 30
0
 11
2.999999999999998
 21
-6.125
 31
0
 70
   33
 71
    5
  3
Standard
 53
0
210
0
220
0
230
1
100
AcDbAlignedDimension
 13
-4
 23
3
 33
0
 14
10
 24
3
 34
0
  0
DIMENSION
  5
188
100
AcDbEntity
  8
comment
  6
ByLayer
 62
  256
370
   -1
100
AcDbDimension
  2
*D8
 10
104
 20
76
 30
0
 11
50
 21
77.875
 31
0
 70
   33
 71
    5
  3
Standard
 53
0
210
0
220
0
230
1
100
AcDbAlignedDimension
 13
-4
 23
64
 33
0
 14
104
 24
64
 34
0
  0
DIMENSION
  5
189
100
AcDbEntity
  8
comment
  6
ByLayer
 62
  256
370
   -1
100
AcDbDimension
  2
*D9
 10
-15
 20
-4
 30
0
 11
-16.875
 21
30
 31
0
 70
   33
 71
    5
  3
Standard
 53
0
210
0
220
0
230
1
100
AcDbAlignedDimension
 13
-4
 23
64
 33
0
 14
-4
 24
-4
 34
0
  0
DIMENSION
  5
18A
100
AcDbEntity
  8
comment
  6
ByLayer
 62
  256
370
   -1
100
AcDbDimension
  2
*D10
 10
63
 20
42
 30
0
 11
50.5
 21
43.875
 31
0
 70
   33
 71
    5
  3
Standard
 53
0
210
0
220
0
230
1
100
AcDbAlignedDimension
 13
38
 23
39
 33
0
 14
63
 24
39
 34
0
  0
DIMENSION
  5
18B
100
AcDbEntity
  8
comment
  6
ByLayer
 62
  256
370
   -1
100
AcDbDimension
  2
*D11
 10
35
 20
14
 30
0
 11
33.125
 21
26.5
 31
0
 70
   33
 71
    5
  3
Standard
 53
0
210
0
220
0
230
1
100
AcDbAlignedDimension
 13
38
 23
39
 33
0
 14
38
 24
14
 34
0
  0
DIMENSION
  5
18C
100
AcDbEntity
  8
comment
  6
ByLayer
 62
  256
370
   -1
100
AcDbDimension
  2
*D12
 10
-4.000000000000005
 20
-13
 30
0
 11
16.99999999999999
 21
-11.125
 31
0
 70
   33
 71
    5
  3
Standard
 53
0
210
0
220
0
230
1
100
AcDbAlignedDimension
 13
38
 23
14
 33
0
 14
-4
 24
14
 34
0
  0
DIMENSION
  5
18D
100
AcDbEntity
  8
comment
  6
ByLayer
 62
  256
370
   -1
100
AcDbDimension
  2
*D13
 10
114
 20
64
 30
0
 11
112.125
 21
51.49999999999999
 31
0
 70
   33
 71
    5
  3
Standard
 53
0
210
0
220
0
230
1
100
AcDbAlignedDimension
 13
63
 23
39
 33
0
 14
63
 24
64
 34
0
  0
DIMENSION
  5
18E
100
AcDbEntity
  8
comment
  6
ByLayer
 62
  256
370
   -1
100
AcDbDimension
  2
*D14
 10
10
 20
2
 30
0
 11
8.125
 21
3
 31
0
 70
   35
 71
    5
  3
Standard
 53
0
210
0
220
0
230
1
100
AcDbDiametricDimension
 15
10
 25
4
 35
0
 40
0
  0
DIMENSION
  5
18F
100
AcDbEntity
  8
comment
  6
ByLayer
 62
  256
370
   -1
100
AcDbDimension
  2
*D15
 10
83
 20
57
 30
0
 11
84
 21
58.875
 31
0
 70
   35
 71
    5
  3
Standard
 53
0
210
0
220
0
230
1
100
AcDbDiametricDimension
 15
85
 25
57
 35
0
 40
0
  0
DIMENSION
  5
190
100
AcDbEntity
  8
comment
  6
ByLayer
 62
  256
370
   -1
100
AcDbDimension
  2
*D16
 10
84
 20
2
 30
0
 11
82.125
 21
3
 31
0
 70
   35
 71
    5
  3
Standard
 53
0
210
0
220
0
230
1
100
AcDbDiametricDimension
 15
84
 25
4
 35
0
 40
0
  0
DIMENSION
  5
191
100
AcDbEntity
  8
comment
  6
ByLayer
 62
  256
370
   -1
100
AcDbDimension
  2
*D17
 10
20
 20
57
 30
0
 11
21
 21
58.875
 31
0
 70
   35
 71
    5
  3
Standard
 53
0
210
0
220
0
230
1
100
AcDbDiametricDimension
 15
22
 25
57
 35
0
 40
0
  0
LWPOLYLINE
  5
192
100
AcDbEntity
  8
0
  6
ByLayer
 62
  256
370
   -1
100
AcDbPolyline
 90
    8
 70
    1
 43
0
 10
0
 20
-4
 10
100
 20
-4
 42
0.414213562373095
 10
104
 20
0
 10
104
 20
60
 42
0.414213562373095
 10
100
 20
64
 10
2.449212707644755e-16
 20
64
 42
0.414213562373095
 10
-4
 20
60
 10
-4
 20
4.898425415289509e-16
 42
0.414213562373095
  0
DIMENSION
  5
193
100
AcDbEntity
  8
comment
  6
ByLayer
 62
  256
370
   -1
100
AcDbDimension
  2
*D18
 10
209.9411884050498
 20
1.784641615255026
 30
0
 11
208.0661884050498
 21
2.784641615255026
 31
0
 70
   35
 71
    5
  3
Standard
 53
0
210
0
220
0
230
1
100
AcDbDiametricDimension
 15
209.9411884050498
 25
3.784641615255026
 35
0
 40
0
  0
DIMENSION
  5
194
100
AcDbEntity
  8
comment
  6
ByLayer
 62
  256
370
   -1
100
AcDbDimension
  2
*D19
 10
282.9411884050498
 20
56.78464161525503
 30
0
 11
283.9411884050498
 21
58.65964161525503
 31
0
 70
   35
 71
    5
  3
Standard
 53
0
210
0
220
0
230
1
100
AcDbDiametricDimension
 15
284.9411884050498
 25
56.78464161525503
 35
0
 40
0
  0
DIMENSION
  5
195
100
AcDbEntity
  8
comment
  6
ByLayer
 62
  256
370
   -1
100
AcDbDimension
  2
*D20
 10
283.9411884050498
 20
1.784641615255026
 30
0
 11
282.0661884050498
 21
2.784641615255026
 31
0
 70
   35
 71
    5
  3
Standard
 53
0
210
0
220
0
230
1
100
AcDbDiametricDimension
 15
283.9411884050498
 25
3.784641615255026
 35
0
 40
0
  0
DIMENSION
  5
196
100
AcDbEntity
  8
comment
  6
ByLayer
 62
  256
370
   -1
100
AcDbDimension
  2
*D21
 10
219.9411884050498
 20
56.78464161525503
 30
0
 11
220.9411884050498
 21
58.65964161525503
 31
0
 70
   35
 71
    5
  3
Standard
 53
0
210
0
220
0
230
1
100
AcDbDiametricDimension
 15
221.9411884050498
 25
56.78464161525503
 35
0
 40
0
  0
LWPOLYLINE
  5
197
100
AcDbEntity
  8
0
  6
ByLayer
 62
  256
370
   -1
100
AcDbPolyline
 90
    8
 70
    1
 43
0
 10
200
 20
-4
 10
300
 20
-4
 42
0.414213562373095
 10
304
 20
0
 10
304
 20
60
 42
0.414213562373095
 10
300
 20
64
 10
200
 20
64
 42
0.414213562373095
 10
196
 20
60
 10
196
 20
4.898425415289509e-16
 42
0.414213562373095
  0
CIRCLE
  5
198
100
AcDbEntity
  8
0
  6
ByLayer
 62
  256
370
   -1
100
AcDbCircle
 10
210
 20
3
 40
1
  0
CIRCLE
  5
199
100
AcDbEntity
  8
0
  6
ByLayer
 62
  256
370
   -1
100
AcDbCircle
 10
284
 20
3
 40
1
  0
CIRCLE
  5
19A
100
AcDbEntity
  8
0
  6
ByLayer
 62
  256
370
   -1
100
AcDbCircle
 10
221
 20
57
 40
1
  0
CIRCLE
  5
19B
100
AcDbEntity
  8
0
  6
ByLayer
 62
  256
370
   -1
100
AcDbCircle
 10
284
 20
57
 40
1
  0
DIMENSION
  5
19C
100
AcDbEntity
  8
comment
  6
ByLayer
 62
  256
370
   -1
100
AcDbDimension
  2
*D22
 10
186
 20
64
 30
0
 11
184.125
 21
30
 31
0
 70
   33
 71
    5
  3
Standard
 53
0
210
0
220
0
230
1
100
AcDbAlignedDimension
 13
200
 23
-4
 33
0
 14
200
 24
64
 34
0
  0
DIMENSION
  5
19D
100
AcDbEntity
  8
comment
  6
ByLayer
 62
  256
370
   -1
100
AcDbDimension
  2
*D23
 10
304
 20
71
 30
0
 11
250
 21
72.875
 31
0
 70
   33
 71
    5
  3
Standard
 53
0
210
0
220
0
230
1
100
AcDbAlignedDimension
 13
196
 23
61
 33
0
 14
304
 24
61
 34
0
  0
DIMENSION
  5
19E
100
AcDbEntity
  8
comment
  6
ByLayer
 62
  256
370
   -1
100
AcDbDimension
  2
*D24
 10
192
 20
64
 30
0
 11
190.125
 21
60.5
 31
0
 70
   33
 71
    5
  3
Standard
 53
0
210
0
220
0
230
1
100
AcDbAlignedDimension
 13
221
 23
57
 33
0
 14
221
 24
64
 34
0
  0
DIMENSION
  5
19F
100
AcDbEntity
  8
comment
  6
ByLayer
 62
  256
370
   -1
100
AcDbDimension
  2
*D25
 10
196
 20
67
 30
0
 11
208.5
 21
68.875
 31
0
 70
   33
 71
    5
  3
Standard
 53
0
210
0
220
0
230
1
100
AcDbAlignedDimension
 13
221
 23
57
 33
0
 14
196
 24
57
 34
0
  0
DIMENSION
  5
1A0
100
AcDbEntity
  8
comment
  6
ByLayer
 62
  256
370
   -1
100
AcDbDimension
  2
*D26
 10
304
 20
67
 30
0
 11
294
 21
68.875
 31
0
 70
   33
 71
    5
  3
Standard
 53
0
210
0
220
0
230
1
100
AcDbAlignedDimension
 13
284
 23
57
 33
0
 14
304
 24
57
 34
0
  0
DIMENSION
  5
1A1
100
AcDbEntity
  8
comment
  6
ByLayer
 62
  256
370
   -1
100
AcDbDimension
  2
*D27
 10
304
 20
-7
 30
0
 11
294
 21
-5.125
 31
0
 70
   33
 71
    5
  3
Standard
 53
0
210
0
220
0
230
1
100
AcDbAlignedDimension
 13
284
 23
3
 33
0
 14
304
 24
3
 34
0
  0
DIMENSION
  5
1A2
100
AcDbEntity
  8
comment
  6
ByLayer
 62
  256
370
   -1
100
AcDbDimension
  2
*D28
 10
307
 20
-4.000000000000005
 30
0
 11
305.125
 21
-0.5000000000000053
 31
0
 70
   33
 71
    5
  3
Standard
 53
0
210
0
220
0
230
1
100
AcDbAlignedDimension
 13
284
 23
3
 33
0
 14
284
 24
-4
 34
0
  0
DIMENSION
  5
1A3
100
AcDbEntity
  8
comment
  6
ByLayer
 62
  256
370
   -1
100
AcDbDimension
  2
*D29
 10
196
 20
-8
 30
0
 11
203
 21
-6.125
 31
0
 70
   33
 71
    5
  3
Standard
 53
0
210
0
220
0
230
1
100
AcDbAlignedDimension
 13
210
 23
3
 33
0
 14
196
 24
3
 34
0
  0
DIMENSION
  5
1A4
100
AcDbEntity
  8
comment
  6
ByLayer
 62
  256
370
   -1
100
AcDbDimension
  2
*D30
 10
193
 20
3.000000000000002
 30
0
 11
191.125
 21
-0.4999999999999976
 31
0
 70
   33
 71
    5
  3
Standard
 53
0
210
0
220
0
230
1
100
AcDbAlignedDimension
 13
210
 23
-4
 33
0
 14
210
 24
3
 34
0
  0
LWPOLYLINE
  5
1A5
100
AcDbEntity
  8
0
  6
ByLayer
 62
  256
370
   -1
100
AcDbPolyline
 90
    6
 70
    1
 43
0
 10
242.3301270189222
 20
24.5
 10
242.3301270189222
 20
29.5
 10
238
 20
32
 10
233.6698729810778
 20
29.5
 10
233.6698729810778
 20
24.5
 10
238
 20
22
  0
LWPOLYLINE
  5
1A6
100
AcDbEntity
  8
0
  6
ByLayer
 62
  256
370
   -1
100
AcDbPolyline
 90
    6
 70
    1
 43
0
 10
249.3301270189222
 20
35.5
 10
249.3301270189222
 20
40.5
 10
245
 20
43
 10
240.6698729810778
 20
40.5
 10
240.6698729810778
 20
35.50000000000001
 10
245
 20
33
  0
LWPOLYLINE
  5
1A7
100
AcDbEntity
  8
0
  6
ByLayer
 62
  256
370
   -1
100
AcDbPolyline
 90
    6
 70
    1
 43
0
 10
261.3301270189222
 20
35.5
 10
261.3301270189222
 20
40.5
 10
257
 20
43
 10
252.6698729810778
 20
40.5
 10
252.6698729810778
 20
35.50000000000001
 10
257
 20
33
  0
LWPOLYLINE
  5
1A8
100
AcDbEntity
  8
0
  6
ByLayer
 62
  256
370
   -1
100
AcDbPolyline
 90
    6
 70
    1
 43
0
 10
268.3301270189222
 20
24.5
 10
268.3301270189222
 20
29.5
 10
264
 20
32
 10
259.6698729810778
 20
29.5
 10
259.6698729810778
 20
24.5
 10
264
 20
22
  0
LWPOLYLINE
  5
1A9
100
AcDbEntity
  8
0
  6
ByLayer
 62
  256
370
   -1
100
AcDbPolyline
 90
    6
 70
    1
 43
0
 10
255.3301270189222
 20
24.5
 10
255.3301270189222
 20
29.5
 10
251
 20
32
 10
246.6698729810778
 20
29.5
 10
246.6698729810778
 20
24.5
 10
251
 20
22
  0
LWPOLYLINE
  5
1AA
100
AcDbEntity
  8
0
  6
ByLayer
 62
  256
370
   -1
100
AcDbPolyline
 90
    6
 70
    1
 43
0
 10
249.3301270189222
 20
13.5
 10
249.3301270189222
 20
18.5
 10
245
 20
21
 10
240.6698729810778
 20
18.5
 10
240.6698729810778
 20
13.5
 10
245
 20
11
  0
LWPOLYLINE
  5
1AB
100
AcDbEntity
  8
0
  6
ByLayer
 62
  256
370
   -1
100
AcDbPolyline
 90
    6
 70
    1
 43
0
 10
261.3301270189222
 20
13.5
 10
261.3301270189222
 20
18.5
 10
257
 20
21
 10
252.6698729810778
 20
18.5
 10
252.6698729810778
 20
13.5
 10
257
 20
11
  0
DIMENSION
  5
1AC
100
AcDbEntity
  8
comment
  6
ByLayer
 62
  256
370
   -1
100
AcDbDimension
  2
*D31
 10
273
 20
22
 30
0
 11
271.125
 21
24.5
 31
0
 70
   33
 71
    5
  3
Standard
 53
0
210
0
220
0
230
1
100
AcDbAlignedDimension
 13
264
 23
27
 33
0
 14
264
 24
22
 34
0
  0
DIMENSION
  5
1AD
100
AcDbEntity
  8
comment
  6
ByLayer
 62
  256
370
   -1
100
AcDbDimension
  2
*D32
 10
264
 20
6
 30
0
 11
257.5
 21
7.875
 31
0
 70
   33
 71
    5
  3
Standard
 53
0
210
0
220
0
230
1
100
AcDbAlignedDimension
 13
251
 23
27
 33
0
 14
264
 24
27
 34
0
  0
DIMENSION
  5
1AE
100
AcDbEntity
  8
comment
  6
ByLayer
 62
  256
370
   -1
100
AcDbDimension
  2
*D33
 10
308
 20
64
 30
0
 11
306.125
 21
60.5
 31
0
 70
   33
 71
    5
  3
Standard
 53
0
210
0
220
0
230
1
100
AcDbAlignedDimension
 13
284
 23
57
 33
0
 14
284
 24
64
 34
0
  0
DIMENSION
  5
1AF
100
AcDbEntity
  8
comment
  6
ByLayer
 62
  256
370
   -1
100
AcDbDimension
  2
*D34
 10
304
 20
-13
 30
0
 11
277.5
 21
-11.125
 31
0
 70
   33
 71
    5
  3
Standard
 53
0
210
0
220
0
230
1
100
AcDbAlignedDimension
 13
251
 23
26
 33
0
 14
304
 24
26
 34
0
  0
DIMENSION
  5
1B0
100
AcDbEntity
  8
comment
  6
ByLayer
 62
  256
370
   -1
100
AcDbDimension
  2
*D35
 10
313
 20
-4.000000000000015
 30
0
 11
311.125
 21
11.49999999999999
 31
0
 70
   33
 71
    5
  3
Standard
 53
0
210
0
220
0
230
1
100
AcDbAlignedDimension
 13
251
 23
27
 33
0
 14
251
 24
-4
 34
0
  0
ENDSEC
  0
SECTION
  2
OBJECTS
  0
DICTIONARY
  5
C
330
0
100
AcDbDictionary
281
    1
  3
ACAD_GROUP
350
D
  0
DICTIONARY
  5
D
330
C
100
AcDbDictionary
281
    1
  0
PLOTSETTINGS
  5
1B1
100
AcDbPlotSettings
  6
1x1
 40
0
 41
0
 42
0
 43
0
  0
ENDSEC
  0
EOF
